<?xml version="1.0" encoding="UTF-8"?>
<svg version="1.1" xmlns="http://www.w3.org/2000/svg" width="3840" height="2160">
<path d="M0 0 C2.31642197 1.19946832 4.644154 2.37544289 6.97216797 3.55224609 C38.57997814 19.66174748 68.48235472 40.03178929 94.72216797 63.94287109 C96.89564657 65.91382922 99.09908604 67.84194172 101.31982422 69.75927734 C104.72724241 72.72345414 107.91636715 75.83948385 111.06982422 79.07177734 C109.64929914 83.67943842 107.04529245 86.47692279 103.65185547 89.74755859 C102.8486512 90.54083809 102.8486512 90.54083809 102.02922058 91.35014343 C100.32057812 93.03547783 98.60211876 94.71033112 96.88232422 96.38427734 C94.63500928 98.58483327 92.39205368 100.78975917 90.15185547 102.99755859 C89.33734421 103.79904831 89.33734421 103.79904831 88.50637817 104.61672974 C85.10364201 107.98582146 81.90512404 111.46201729 78.80297852 115.11157227 C74.29513397 120.20996413 69.29853158 124.87633427 64.45263672 129.64990234 C60.07696938 133.98566998 55.87936016 138.37302407 51.87060547 143.04833984 C47.52564873 147.93052551 42.75312045 152.42297236 38.09716797 157.00537109 C33.74377437 161.31683794 29.55193593 165.67601987 25.6027832 170.36279297 C23.31446438 172.91387304 20.76797468 174.96590381 18.06982422 177.07177734 C17.34794922 176.32927734 16.62607422 175.58677734 15.88232422 174.82177734 C13.16271375 172.05910465 13.16271375 172.05910465 10.25732422 169.88427734 C9.53544922 169.28615234 8.81357422 168.68802734 8.06982422 168.07177734 C8.06982422 167.41177734 8.06982422 166.75177734 8.06982422 166.07177734 C7.26158203 165.73146484 7.26158203 165.73146484 6.43701172 165.38427734 C3.34109934 163.66773186 0.83659496 161.39870911 -1.80517578 159.07177734 C-18.80661674 144.43030978 -38.1334839 132.53018218 -57.93017578 122.07177734 C-58.77708984 121.62302246 -59.62400391 121.17426758 -60.49658203 120.71191406 C-74.27367226 113.47082559 -88.29893173 107.37106143 -102.93017578 102.07177734 C-104.25033691 101.59248779 -104.25033691 101.59248779 -105.59716797 101.10351562 C-125.20302313 94.0772884 -145.31263298 89.00190806 -165.93017578 86.07177734 C-167.25710449 85.87672607 -167.25710449 85.87672607 -168.61083984 85.67773438 C-171.46615486 85.25905347 -174.32272565 84.8506166 -177.18017578 84.44677734 C-178.04271973 84.32343018 -178.90526367 84.20008301 -179.79394531 84.07299805 C-192.58751894 82.32995506 -205.40794447 81.83237402 -218.30517578 81.82177734 C-219.05662872 81.8211026 -219.80808167 81.82042786 -220.58230591 81.81973267 C-270.54038382 81.8899068 -319.42038897 92.53826827 -364.93017578 113.07177734 C-366.12441162 113.60109863 -366.12441162 113.60109863 -367.34277344 114.14111328 C-385.09436113 122.03315952 -402.08928704 131.81955915 -417.93017578 143.07177734 C-418.62143555 143.56226563 -419.31269531 144.05275391 -420.02490234 144.55810547 C-431.17668927 152.51226423 -441.8008979 160.85129944 -451.93017578 170.07177734 C-452.58614746 170.66603516 -453.24211914 171.26029297 -453.91796875 171.87255859 C-467.41325373 184.14981091 -479.65742252 197.03055339 -490.73388672 211.52880859 C-492.39360279 213.66950361 -494.13511308 215.73985015 -495.86767578 217.82177734 C-544.0949265 278.08118468 -567.24063541 358.59305201 -567.11767578 434.94677734 C-567.1167392 435.70834137 -567.11580261 436.4699054 -567.11483765 437.25454712 C-566.96081747 495.52652697 -553.24693111 552.48906319 -525.93017578 604.07177734 C-525.37426758 605.12776123 -525.37426758 605.12776123 -524.80712891 606.20507812 C-505.55921712 642.51509475 -478.03271583 678.53215583 -445.53564453 704.02099609 C-442.78094289 706.18923951 -440.14610202 708.46852303 -437.49267578 710.75927734 C-422.47525377 723.24480452 -405.91868772 733.51316943 -388.93017578 743.07177734 C-388.13820801 743.52004883 -387.34624023 743.96832031 -386.53027344 744.43017578 C-348.17695531 765.94843157 -305.40969167 778.52842816 -261.93017578 784.07177734 C-261.08197266 784.1889209 -260.23376953 784.30606445 -259.35986328 784.42675781 C-191.6263833 793.58765653 -117.82457924 780.21707043 -56.93017578 750.07177734 C-55.75624268 749.49411621 -55.75624268 749.49411621 -54.55859375 748.90478516 C-38.43080123 740.88864612 -23.02700099 731.28794697 -8.93017578 720.07177734 C-7.99947266 719.33314453 -7.06876953 718.59451172 -6.10986328 717.83349609 C11.0144846 704.02430748 27.01624291 688.82464793 40.06982422 671.07177734 C40.76076172 670.16427734 41.45169922 669.25677734 42.16357422 668.32177734 C72.57956352 627.76712495 89.49339466 577.40253826 93.79516602 527.13818359 C94.06982422 525.07177734 94.06982422 525.07177734 95.06982422 523.07177734 C-9.21017578 523.07177734 -113.49017578 523.07177734 -220.93017578 523.07177734 C-220.93017578 479.18177734 -220.93017578 435.29177734 -220.93017578 390.07177734 C-73.75017578 390.07177734 73.42982422 390.07177734 225.06982422 390.07177734 C228.44850934 404.7127462 228.44850934 404.7127462 229.20263672 410.99755859 C229.28480438 411.67368698 229.36697205 412.34981537 229.45162964 413.0464325 C229.62120179 414.45478675 229.78740609 415.86355069 229.95019531 417.27270508 C230.19350599 419.37289876 230.44916225 421.47131339 230.70654297 423.56982422 C232.84362708 441.31442073 233.31030453 458.96396383 233.31982422 476.82177734 C233.32083633 478.53803818 233.32083633 478.53803818 233.3218689 480.28897095 C233.303186 500.35247686 232.51106432 520.15469435 230.06982422 540.07177734 C229.98496765 540.76517212 229.90011108 541.45856689 229.81268311 542.17297363 C221.21476326 611.33562305 198.12398574 681.17439152 157.06982422 738.07177734 C156.50352295 738.85786377 155.93722168 739.6439502 155.35375977 740.45385742 C149.14757229 749.01554902 142.90153596 757.52141363 136.10498047 765.62646484 C133.21148277 769.10310508 130.45773222 772.68708069 127.69873047 776.27099609 C127.16119141 776.86525391 126.62365234 777.45951172 126.06982422 778.07177734 C125.40982422 778.07177734 124.74982422 778.07177734 124.06982422 778.07177734 C123.86220459 778.60391846 123.65458496 779.13605957 123.44067383 779.68432617 C121.51533232 783.03747214 118.85925252 785.56739504 116.13623047 788.27099609 C115.54365952 788.8654805 114.95108856 789.4599649 114.34056091 790.07246399 C113.08293397 791.33145094 111.82278172 792.58791963 110.56030273 793.84204102 C108.66341381 795.72836097 106.77725478 797.62492133 104.89208984 799.52294922 C97.92269065 806.49998419 90.82473565 812.96825957 83.06982422 819.07177734 C82.04177172 819.93456724 81.01835714 820.80297421 80.00341797 821.68115234 C60.16100434 838.69780754 37.89300214 852.46349099 15.06982422 865.07177734 C14.23499512 865.53583984 13.40016602 865.99990234 12.54003906 866.47802734 C-63.41506679 908.42538527 -154.15688824 924.70686889 -363.93017578 900.07177734 C-364.77563965 899.83120605 -365.62110352 899.59063477 -366.4921875 899.34277344 C-373.69600884 897.24549537 -380.74417111 894.72779409 -387.80517578 892.19677734 C-389.58988281 891.56449219 -389.58988281 891.56449219 -391.41064453 890.91943359 C-420.56054255 880.50192905 -449.55593197 867.09611134 -475.55517578 850.22802734 C-477.84243492 848.74418533 -480.15760456 847.34975274 -482.53173828 846.00927734 C-497.89625186 837.24973857 -512.37274702 826.28876053 -526.26513672 815.37207031 C-528.11527984 813.92722248 -529.97913587 812.50116123 -531.84423828 811.07568359 C-533.1439118 810.07463379 -534.44339514 809.07333701 -535.74267578 808.07177734 C-536.66922974 807.36782837 -536.66922974 807.36782837 -537.61450195 806.6496582 C-539.09046802 805.50365115 -540.51589987 804.29310107 -541.93017578 803.07177734 C-541.93017578 802.41177734 -541.93017578 801.75177734 -541.93017578 801.07177734 C-542.52588379 800.7975293 -543.1215918 800.52328125 -543.73535156 800.24072266 C-545.84628451 799.11645715 -547.31197599 797.99698474 -549.04736328 796.36865234 C-549.64363525 795.81121338 -550.23990723 795.25377441 -550.85424805 794.67944336 C-551.4980542 794.06641357 -552.14186035 793.45338379 -552.80517578 792.82177734 C-553.82792603 791.85485962 -553.82792603 791.85485962 -554.87133789 790.8684082 C-561.16449556 784.87787994 -567.33931697 778.76771065 -573.49267578 772.63427734 C-574.41999512 771.71163086 -575.34731445 770.78898437 -576.30273438 769.83837891 C-581.38657299 764.74256098 -586.26275451 759.55002342 -590.93017578 754.07177734 C-591.87935739 752.9885711 -592.82982482 751.90648989 -593.78173828 750.82568359 C-608.31563075 734.16367882 -623.04481414 716.14288665 -633.87939453 696.82177734 C-634.93228218 694.9081928 -634.93228218 694.9081928 -636.93017578 693.07177734 C-638.12941672 691.07010313 -639.28962882 689.04496669 -640.43017578 687.00927734 C-642.60549135 683.13486932 -644.78635431 679.27293965 -647.11767578 675.48974609 C-694.06779088 598.91405782 -716.72541433 505.81987492 -701.26367188 326.05834961 C-692.20121454 288.54994281 -678.18224934 252.53391941 -660.93017578 218.07177734 C-660.51977051 217.24307129 -660.10936523 216.41436523 -659.68652344 215.56054688 C-649.51916857 195.12860256 -637.26427161 175.58178665 -623.93017578 157.07177734 C-623.38651367 156.31316406 -622.84285156 155.55455078 -622.28271484 154.77294922 C-615.65224543 145.55019923 -608.87658024 136.54321154 -601.42626953 127.96630859 C-599.10855892 125.27863479 -596.88937386 122.5362023 -594.68017578 119.75927734 C-585.05677249 107.98794397 -574.21625508 97.26752508 -563.49267578 86.50927734 C-562.56946533 85.58139404 -561.64625488 84.65351074 -560.69506836 83.69750977 C-555.59982136 78.61424832 -550.40780362 73.73867188 -544.93017578 69.07177734 C-543.84696954 68.12259574 -542.76488833 67.1721283 -541.68408203 66.22021484 C-532.74056333 58.41898439 -523.44810547 51.15685403 -513.93017578 44.07177734 C-512.86307373 43.27320313 -512.86307373 43.27320313 -511.77441406 42.45849609 C-493.07916621 28.51656483 -473.32462005 16.35535701 -452.93017578 5.07177734 C-452.18864258 4.65508789 -451.44710938 4.23839844 -450.68310547 3.80908203 C-372.10353064 -40.20822825 -279.17868127 -57.3694996 0 0 Z " fill="#0086F7" transform="translate(722.93017578125,505.92822265625)"/>
<path d="M0 0 C0.9534581 -0.00983917 1.9069162 -0.01967834 2.88926697 -0.02981567 C63.88463232 -0.5294605 120.67099414 14.01868251 166.4375 56.1328125 C169.25414491 58.72354903 172.14002533 61.22820528 175.03515625 63.73046875 C176.66114025 65.17996026 178.19308063 66.69217923 179.7265625 68.23828125 C179.73686996 67.68562088 179.74717743 67.13296051 179.75779724 66.56355286 C179.86608949 60.80454216 179.98066853 55.04568075 180.09887695 49.28686523 C180.14215302 47.13845955 180.18383323 44.9900211 180.22387695 42.84155273 C180.2817571 39.75103893 180.34540042 36.66068895 180.41015625 33.5703125 C180.42686874 32.61179886 180.44358124 31.65328522 180.46080017 30.66572571 C180.48074539 29.76516953 180.50069061 28.86461334 180.52124023 27.93676758 C180.54455666 26.75429192 180.54455666 26.75429192 180.56834412 25.54792786 C180.7265625 23.23828125 180.7265625 23.23828125 181.7265625 18.23828125 C224.9565625 18.23828125 268.1865625 18.23828125 312.7265625 18.23828125 C312.78695485 85.9854849 312.78695485 85.9854849 312.80351257 106.96478271 C312.80440057 108.08708315 312.80440057 108.08708315 312.80530652 109.23205633 C312.82520623 134.45078394 312.84094794 159.66951237 312.85359192 184.88824463 C312.85400609 185.71220025 312.85442026 186.53615587 312.85484698 187.38507984 C312.86382857 205.29775437 312.87213871 223.21042916 312.87975849 241.12310432 C312.88350005 249.90921804 312.88738977 258.69533169 312.89135742 267.48144531 C312.8917497 268.35570549 312.89214198 269.22996567 312.89254614 270.13071858 C312.90529893 298.39816015 312.92780932 326.66558356 312.95545416 354.93301417 C312.98384327 384.01473112 313.00223991 413.09643806 313.00830747 442.17816864 C313.00917176 446.29867261 313.01014867 450.41917655 313.01119423 454.53968048 C313.0113965 455.35054574 313.01159877 456.16141099 313.01180717 456.99684792 C313.01533345 469.97766196 313.02919615 482.95844475 313.0470586 495.93924612 C313.06485082 509.03286002 313.07143418 522.12644337 313.06706663 535.2200689 C313.06500496 542.29679335 313.06760322 549.37343438 313.08417892 556.45014191 C313.2416527 626.46721586 307.43008187 694.13834669 276.7265625 758.23828125 C276.11627197 759.51469482 276.11627197 759.51469482 275.49365234 760.81689453 C267.74887262 776.76613185 258.17082925 792.33129215 246.7019043 805.88696289 C245.3722962 807.46964186 244.06298802 809.06957418 242.7734375 810.68505859 C237.23846489 817.61018057 231.3243677 823.99098535 225.0390625 830.23828125 C224.55789978 830.71762115 224.07673706 831.19696106 223.58099365 831.69082642 C216.05000744 839.17401019 208.39132992 846.10188845 199.7265625 852.23828125 C198.83638428 852.88700195 198.83638428 852.88700195 197.92822266 853.54882812 C132.02087893 901.53777414 45.28396677 915.54802289 -34.2734375 903.23828125 C-67.25596496 897.68371141 -99.10290766 887.77534561 -128.2734375 871.23828125 C-130.3342105 870.11012085 -132.39657672 868.98486309 -134.4609375 867.86328125 C-135.30011719 867.40179687 -136.13929688 866.9403125 -137.00390625 866.46484375 C-139.07458847 865.34574871 -141.16160382 864.27720633 -143.2734375 863.23828125 C-143.2734375 862.57828125 -143.2734375 861.91828125 -143.2734375 861.23828125 C-144.37558594 860.83416016 -144.37558594 860.83416016 -145.5 860.421875 C-150.22371926 858.40597791 -154.13228016 855.24327491 -158.2734375 852.23828125 C-159.60130021 851.29260035 -160.92944261 850.34731209 -162.2578125 849.40234375 C-163.63849767 848.4108199 -165.01870712 847.41863328 -166.3984375 846.42578125 C-167.07438965 845.94568604 -167.7503418 845.46559082 -168.44677734 844.97094727 C-170.09263482 843.77605897 -171.68835369 842.51268863 -173.2734375 841.23828125 C-173.2734375 840.57828125 -173.2734375 839.91828125 -173.2734375 839.23828125 C-174.10488281 838.8825 -174.10488281 838.8825 -174.953125 838.51953125 C-191.06485687 829.62281736 -206.10445786 810.6886303 -216.92089844 796.04394531 C-218.38438236 794.09016787 -219.89042324 792.17513942 -221.40625 790.26171875 C-229.46847837 780.03110336 -236.5229698 769.36997172 -243.2734375 758.23828125 C-243.71816406 757.51640625 -244.16289062 756.79453125 -244.62109375 756.05078125 C-251.33847683 745.1425532 -256.97501234 733.89737623 -262.2734375 722.23828125 C-253.85325523 717.7951033 -245.12878411 714.17062378 -236.3359375 710.55078125 C-233.94887406 709.56314639 -231.56237521 708.57415526 -229.17588806 707.58512878 C-227.49691092 706.88941311 -225.81775947 706.19411798 -224.13844299 705.4992218 C-215.11026446 701.76204673 -206.09962452 697.9832819 -197.08886719 694.2043457 C-194.3477265 693.05572121 -191.60568195 691.90928448 -188.86328125 690.76367188 C-177.61604943 686.06471717 -177.61604943 686.06471717 -166.3921051 681.3105011 C-163.66809288 680.14993892 -160.94069089 678.99750145 -158.21261597 677.8465271 C-156.38776244 677.07275597 -154.56793912 676.28715514 -152.74829102 675.5012207 C-151.67506592 675.049646 -150.60184082 674.59807129 -149.49609375 674.1328125 C-148.57578369 673.73940674 -147.65547363 673.34600098 -146.70727539 672.94067383 C-144.00580903 672.16104511 -142.80437419 672.01774583 -140.2734375 673.23828125 C-139.09179688 674.99389648 -139.09179688 674.99389648 -138.1171875 677.296875 C-137.74102295 678.14870361 -137.3648584 679.00053223 -136.97729492 679.87817383 C-136.58002197 680.80138428 -136.18274902 681.72459473 -135.7734375 682.67578125 C-117.70593414 722.455422 -83.66370454 755.78938633 -42.8359375 771.67578125 C-0.56875498 787.25973404 50.39448728 786.50070151 91.68115234 767.90771484 C103.64385113 762.21882129 114.7261614 755.96173013 124.7265625 747.23828125 C125.63535156 746.45453125 126.54414063 745.67078125 127.48046875 744.86328125 C129.93743416 742.69558599 132.33863787 740.48148318 134.7265625 738.23828125 C135.61021484 737.45130859 135.61021484 737.45130859 136.51171875 736.6484375 C167.91815376 707.46940923 178.6314849 659.97921333 180.59033203 619.02099609 C181.37981949 597.09927789 180.71666547 575.14167625 179.7265625 553.23828125 C179.08855713 553.89723389 178.45055176 554.55618652 177.79321289 555.23510742 C153.09147023 580.63773459 153.09147023 580.63773459 138.7265625 590.23828125 C138.01371094 590.71507324 137.30085938 591.19186523 136.56640625 591.68310547 C100.38671278 615.49183232 58.24577792 625.90773538 15.17431641 625.62939453 C12.22641791 625.61328046 9.27988954 625.62938755 6.33203125 625.6484375 C-11.84701763 625.6696161 -29.78292429 623.76671887 -47.4609375 619.42578125 C-48.5442334 619.16571289 -49.6275293 618.90564453 -50.74365234 618.63769531 C-53.92648293 617.86038892 -57.10118534 617.05760466 -60.2734375 616.23828125 C-61.16659668 616.0077002 -62.05975586 615.77711914 -62.97998047 615.53955078 C-82.94248724 610.25434182 -102.09223964 601.97788897 -120.2734375 592.23828125 C-121.37510254 591.65046875 -121.37510254 591.65046875 -122.49902344 591.05078125 C-132.08756433 585.90472995 -141.36439448 580.50672674 -150.2734375 574.23828125 C-150.8298291 573.85172363 -151.3862207 573.46516602 -151.95947266 573.06689453 C-164.63906301 564.2537577 -177.28030794 554.79348141 -187.8984375 543.51171875 C-189.36380081 541.97893195 -189.36380081 541.97893195 -192.2734375 541.23828125 C-193.7734375 539.71484375 -193.7734375 539.71484375 -195.2734375 537.86328125 C-196.78047218 536.0187336 -198.23198569 534.27762209 -199.9609375 532.63671875 C-201.2734375 531.23828125 -201.2734375 531.23828125 -201.2734375 529.23828125 C-201.9334375 529.23828125 -202.5934375 529.23828125 -203.2734375 529.23828125 C-204.66943146 527.70990856 -205.98931399 526.11178026 -207.2734375 524.48828125 C-208.07910156 523.47894531 -208.88476562 522.46960937 -209.71484375 521.4296875 C-210.34737061 520.63522217 -210.34737061 520.63522217 -210.99267578 519.82470703 C-213.01687621 517.31741492 -215.12127347 514.87857805 -217.2109375 512.42578125 C-232.97218667 493.48313973 -245.37435866 472.27522305 -256.2734375 450.23828125 C-256.6442041 449.49884277 -257.0149707 448.7594043 -257.39697266 447.99755859 C-271.69754048 419.14337607 -280.34879018 386.07444376 -284.2734375 354.23828125 C-284.4278833 353.02712646 -284.4278833 353.02712646 -284.58544922 351.79150391 C-294.88260383 267.38086368 -269.78843443 181.79101439 -217.7109375 114.98828125 C-213.75798841 109.97073031 -209.63243574 105.15421772 -205.3046875 100.453125 C-203.49501762 98.47988881 -201.75503859 96.46720312 -200.0234375 94.42578125 C-192.47653145 85.77058829 -184.14631671 77.52726694 -175.2734375 70.23828125 C-174.77183105 69.82288086 -174.27022461 69.40748047 -173.75341797 68.97949219 C-125.31567272 29.00133594 -63.70836428 0.54430279 0 0 Z M-99.2734375 178.23828125 C-124.86719686 207.13446117 -140.37801538 242.22754713 -146.2734375 280.23828125 C-146.39203125 280.98948242 -146.510625 281.74068359 -146.6328125 282.51464844 C-154.33662153 333.8045913 -143.28095114 389.1838639 -112.90234375 431.609375 C-84.97015438 469.402303 -44.94280245 493.78067683 1.61035156 500.92724609 C5.99864889 501.57222657 10.29093266 502.09775854 14.7265625 502.23828125 C15.35530273 502.25874512 15.98404297 502.27920898 16.63183594 502.30029297 C59.78796093 503.50404841 101.8930923 488.77458447 133.6640625 459.17578125 C165.47284739 428.79614057 182.50560005 391.29550777 189.7265625 348.23828125 C189.85933594 347.47580078 189.99210937 346.71332031 190.12890625 345.92773438 C198.78659123 294.12754056 186.79608089 236.1175671 156.7265625 193.11328125 C151.71847337 186.17498259 146.16893368 179.82398087 140.17919922 173.72167969 C138.75301826 172.26529725 137.34996981 170.78940193 135.94921875 169.30859375 C129.70845232 162.84398347 123.10333929 157.36185929 115.7265625 152.23828125 C114.47166016 151.36623047 114.47166016 151.36623047 113.19140625 150.4765625 C94.43328697 138.03879871 74.63204005 130.05134198 52.7265625 125.23828125 C51.58960937 124.98820313 50.45265625 124.738125 49.28125 124.48046875 C-5.55843173 114.72202914 -61.70230475 139.02706974 -99.2734375 178.23828125 Z " fill="#0086F7" transform="translate(2649.2734375,800.76171875)"/>
<path d="M0 0 C0.98355469 0.76957031 1.96710937 1.53914062 2.98046875 2.33203125 C12.77774713 10.17833645 21.87721491 18.82082105 30.8125 27.625 C31.33448975 28.13393799 31.85647949 28.64287598 32.39428711 29.16723633 C33.6360858 30.40608287 34.82377336 31.69873306 36 33 C36 33.66 36 34.32 36 35 C36.66 35 37.32 35 38 35 C40.76276072 37.97115862 43.2205427 41.19557834 45.72802734 44.38378906 C46.94205024 45.92636709 48.16800618 47.45953137 49.39453125 48.9921875 C101.94911688 115.72547393 121.18279841 202.59128691 111.8125 286.1875 C108.93903262 309.39571432 103.47571583 331.86508864 96 354 C95.74782715 354.75490723 95.4956543 355.50981445 95.23583984 356.28759766 C82.47580402 393.938246 60.95895309 427.21088723 35 457 C34.29399658 457.81090088 34.29399658 457.81090088 33.57373047 458.63818359 C32.20311428 460.20372768 30.82289251 461.76002753 29.4375 463.3125 C28.63183594 464.21613281 27.82617188 465.11976563 26.99609375 466.05078125 C25 468 25 468 23 468 C22.75894531 468.57621094 22.51789062 469.15242188 22.26953125 469.74609375 C19.65398081 474.38970176 14.99161742 477.55822127 11 481 C10.03707031 481.84949219 9.07414062 482.69898438 8.08203125 483.57421875 C-52.15043203 536.21329395 -135.50043421 563.50398313 -215.25 558.375 C-260.23206262 555.23397989 -303.53841579 545.09071009 -344 525 C-344.8353125 524.59313965 -345.670625 524.1862793 -346.53125 523.76708984 C-359.02786116 517.65146062 -370.4803879 510.28274348 -381.92480469 502.39111328 C-383.60642645 501.26383319 -385.34693802 500.22474726 -387.1015625 499.21484375 C-388.04128906 498.61349609 -388.04128906 498.61349609 -389 498 C-389 497.34 -389 496.68 -389 496 C-390.01513672 495.69255859 -390.01513672 495.69255859 -391.05078125 495.37890625 C-395.03426671 493.51642894 -397.92968238 490.85539301 -401.1875 487.9375 C-401.85313965 487.3496875 -402.5187793 486.761875 -403.20458984 486.15625 C-404.53639744 484.97814969 -405.86556191 483.79705376 -407.19189453 482.61279297 C-408.70218471 481.26564513 -410.22289161 479.93018728 -411.74609375 478.59765625 C-421.49156431 470.00435955 -430.75271849 460.93463716 -438.82421875 450.73828125 C-441.15195297 447.80876295 -443.57147238 444.97133882 -446 442.125 C-498.43223998 379.06133808 -519.99546991 292.24886246 -512.68359375 211.53125 C-508.85123932 173.17353909 -497.97447355 136.55290777 -481 102 C-480.61875977 101.21834473 -480.23751953 100.43668945 -479.84472656 99.63134766 C-473.85617438 87.47937541 -466.59096113 76.20490832 -459 65 C-458.54979492 64.33307129 -458.09958984 63.66614258 -457.63574219 62.97900391 C-452.08382096 54.81353393 -445.98985956 47.27467064 -439.46875 39.86328125 C-436.95711394 37.06916303 -436.95711394 37.06916303 -435 34 C-434.34 34 -433.68 34 -433 34 C-432.7517749 33.42725342 -432.5035498 32.85450684 -432.24780273 32.2644043 C-430.80875865 29.65295178 -429.13991252 27.88092339 -427.03515625 25.76953125 C-426.24069092 24.97095703 -425.44622559 24.17238281 -424.62768555 23.34960938 C-423.3579187 22.09374023 -423.3579187 22.09374023 -422.0625 20.8125 C-421.19729736 19.95333984 -420.33209473 19.09417969 -419.44067383 18.20898438 C-413.54304591 12.40256543 -407.57580074 7.02912571 -401 2 C-399.95085803 1.1525384 -398.90412192 0.30209267 -397.859375 -0.55078125 C-316.41611193 -66.62003311 -203.94256925 -83.40835153 0 0 Z M-327.01953125 111.08203125 C-328.7497036 113.00669604 -330.38280753 114.97942619 -332 117 C-332.74378906 117.90621094 -333.48757813 118.81242187 -334.25390625 119.74609375 C-367.98380557 161.61006223 -380.52506917 215.94263653 -375.17749023 268.87597656 C-369.27084887 319.43208556 -346.04110293 366.7297281 -305.76660156 398.63867188 C-268.77486078 427.14419241 -221.8198273 439.33819464 -175.61669922 433.37109375 C-144.25604146 428.92360357 -113.85700344 415.99118555 -90 395 C-88.77603516 393.94039062 -88.77603516 393.94039062 -87.52734375 392.859375 C-48.72872258 358.67231736 -27.14924711 311.8424528 -23.58984375 260.35546875 C-20.65998766 211.08204451 -32.03224004 157.39097204 -65.39746094 119.40917969 C-67.73844436 116.80376624 -70.11654156 114.24003167 -72.51953125 111.69140625 C-75 109 -75 109 -77.09765625 106.359375 C-80.00171337 102.7576286 -83.45816743 99.95666023 -87 97 C-87.73089844 96.38125 -88.46179687 95.7625 -89.21484375 95.125 C-153.81357476 41.81223697 -248.10459319 43.48354252 -327.01953125 111.08203125 Z " fill="#FE4131" transform="translate(1512,868)"/>
<path d="M0 0 C0.74636719 0.70898438 1.49273438 1.41796875 2.26171875 2.1484375 C3.54760948 3.25932535 4.83899668 4.3638941 6.13671875 5.4609375 C15.7732942 13.87067993 24.33932711 23.12028005 32.26171875 33.1484375 C33.71990383 34.87772919 35.17824029 36.60689324 36.63671875 38.3359375 C45.97699467 49.77533467 54.03227951 62.28462577 61.26171875 75.1484375 C61.72191406 75.96634766 62.18210937 76.78425781 62.65625 77.62695312 C83.05594916 114.30873407 94.97345103 155.44995164 99.26171875 197.1484375 C99.35598145 198.02234131 99.45024414 198.89624512 99.54736328 199.79663086 C102.18565197 228.19245181 102.39484069 259.05809105 97.26171875 287.1484375 C96.95572754 288.86450195 96.95572754 288.86450195 96.64355469 290.61523438 C87.07762203 342.99811451 66.52037142 392.98442039 32.26171875 434.1484375 C31.57207031 435.02242187 30.88242188 435.89640625 30.171875 436.796875 C23.68953242 444.80262061 16.52178991 452.10470854 9.26171875 459.3984375 C8.75342529 459.91190735 8.24513184 460.4253772 7.72143555 460.95440674 C0.91038605 467.82001262 -6.10185554 474.19034711 -13.73828125 480.1484375 C-14.49850586 480.74237305 -15.25873047 481.33630859 -16.04199219 481.94824219 C-58.23827831 514.42864985 -107.12450483 535.20819391 -159.703125 543.60546875 C-162.64549804 543.98424656 -162.64549804 543.98424656 -164.73828125 545.1484375 C-216.1344101 552.46668821 -269.64724837 545.89952617 -318.73828125 530.1484375 C-320.39690735 529.63077911 -322.05574065 529.11378381 -323.71484375 528.59765625 C-331.0051621 526.28211072 -331.0051621 526.28211072 -333.73828125 525.1484375 C-334.06828125 524.4884375 -334.39828125 523.8284375 -334.73828125 523.1484375 C-336.40056928 522.79391332 -338.06828304 522.46465714 -339.73828125 522.1484375 C-341.55939162 521.39988188 -343.35694991 520.59253481 -345.1328125 519.7421875 C-346.16317627 519.25008789 -347.19354004 518.75798828 -348.25512695 518.25097656 C-349.88647583 517.45771973 -349.88647583 517.45771973 -351.55078125 516.6484375 C-352.6699292 516.10670898 -353.78907715 515.56498047 -354.94213867 515.00683594 C-391.82407814 496.99750575 -426.50109412 470.95697795 -452.73828125 439.1484375 C-453.31191406 438.46394531 -453.88554688 437.77945313 -454.4765625 437.07421875 C-470.2918771 417.78804836 -484.22821336 396.78754839 -494.73828125 374.1484375 C-495.09341797 373.39804199 -495.44855469 372.64764648 -495.81445312 371.87451172 C-531.49100866 296.33234236 -537.23454137 207.32254348 -509.83154297 128.18359375 C-497.50814693 93.97089622 -479.98745155 62.14060794 -456.73828125 34.1484375 C-455.93777344 33.16230469 -455.13726563 32.17617188 -454.3125 31.16015625 C-447.99526779 23.49687384 -441.17624391 16.37723362 -434.17578125 9.3359375 C-432.88281128 8.02919067 -432.88281128 8.02919067 -431.5637207 6.69604492 C-425.59804508 0.7586025 -419.34139424 -4.63674202 -412.73828125 -9.8515625 C-412.01664795 -10.42720947 -411.29501465 -11.00285645 -410.55151367 -11.59594727 C-361.68723698 -50.31555584 -303.53043733 -71.74313613 -241.73828125 -77.8515625 C-240.43375 -77.98433594 -239.12921875 -78.11710938 -237.78515625 -78.25390625 C-154.69191091 -85.17834336 -61.26250369 -57.97890855 0 0 Z M-340.73828125 101.1484375 C-373.20323967 137.36365836 -388.94145743 184.52837745 -388.98828125 232.7734375 C-388.98928833 233.4967627 -388.99029541 234.22008789 -388.99133301 234.96533203 C-388.97350851 254.01867637 -387.03208444 272.79521323 -381.73828125 291.1484375 C-381.51188965 291.93718262 -381.28549805 292.72592773 -381.05224609 293.53857422 C-371.92732678 324.5271616 -355.89476231 350.87891501 -333.73828125 374.1484375 C-333.09246094 374.83550781 -332.44664062 375.52257813 -331.78125 376.23046875 C-330.47983698 377.58254505 -329.11724444 378.8755484 -327.73828125 380.1484375 C-327.07828125 380.1484375 -326.41828125 380.1484375 -325.73828125 380.1484375 C-325.73828125 380.8084375 -325.73828125 381.4684375 -325.73828125 382.1484375 C-323.42435058 384.0974908 -321.10657702 385.91706297 -318.67578125 387.7109375 C-317.94915283 388.24887939 -317.22252441 388.78682129 -316.47387695 389.34106445 C-278.96073518 416.72431543 -232.78818121 429.0207767 -186.63549805 422.20458984 C-149.54719267 416.18725438 -117.78857561 398.86581881 -90.73828125 373.1484375 C-90.05507812 372.5296875 -89.371875 371.9109375 -88.66796875 371.2734375 C-77.80895463 361.09595146 -69.05453604 348.02629924 -61.73828125 335.1484375 C-61.08472656 334.02695313 -60.43117188 332.90546875 -59.7578125 331.75 C-36.61924673 291.03082584 -30.41233874 238.80516787 -39.73828125 193.1484375 C-39.90457031 192.29797852 -40.07085938 191.44751953 -40.2421875 190.57128906 C-45.85117417 162.55751673 -57.04699311 135.70558079 -74.73828125 113.1484375 C-75.42535156 112.25253906 -76.11242188 111.35664062 -76.8203125 110.43359375 C-84.69188848 100.35735547 -93.14642738 90.46446028 -103.73828125 83.1484375 C-104.39828125 83.1484375 -105.05828125 83.1484375 -105.73828125 83.1484375 C-105.73828125 82.4884375 -105.73828125 81.8284375 -105.73828125 81.1484375 C-176.420779 23.95082089 -279.56521578 37.37549302 -340.73828125 101.1484375 Z " fill="#FEBC00" transform="translate(2206.73828125,878.8515625)"/>
<path d="M0 0 C0.91311951 -0.00067474 1.82623901 -0.00134949 2.76702881 -0.00204468 C17.50417233 0.015221 31.89983522 0.64455505 46.4375 3.25 C47.3754541 3.41628906 48.3134082 3.58257813 49.27978516 3.75390625 C107.63811516 14.4965339 162.73938571 44.8581207 202.4375 89.25 C202.4375 89.91 202.4375 90.57 202.4375 91.25 C203.0975 91.25 203.7575 91.25 204.4375 91.25 C206.1796875 93.12890625 206.1796875 93.12890625 208.3125 95.8125 C209.52292969 97.33230469 209.52292969 97.33230469 210.7578125 98.8828125 C211.19254883 99.43227539 211.62728516 99.98173828 212.07519531 100.54785156 C213.44274648 102.25655528 214.83798426 103.93852196 216.2421875 105.6171875 C228.40806164 120.28150185 238.52662345 136.42893357 247.4375 153.25 C247.75992676 153.85634277 248.08235352 154.46268555 248.41455078 155.08740234 C260.65474329 178.32207663 270.31590002 203.03500957 280.4375 227.25 C281.02132446 228.60593262 281.02132446 228.60593262 281.61694336 229.98925781 C282.4375 232.25 282.4375 232.25 282.4375 235.25 C263.03703405 243.8419365 243.43142654 251.92641937 223.82177734 260.02539062 C215.33644956 263.53035331 206.85568152 267.04631375 198.375 270.5625 C197.54228577 270.90765656 196.70957153 271.25281311 195.85162354 271.60842896 C180.68227416 277.89636952 165.52397643 284.210694 150.36764526 290.52993774 C135.73435651 296.63084443 121.09400504 302.71438048 106.44677734 308.78173828 C92.43596709 314.58602116 78.43504161 320.41379723 64.4375 326.25 C48.78105513 332.77787393 33.11827702 339.29009374 17.44677734 345.78173828 C2.41273919 352.00991557 -12.60959109 358.26596373 -27.62924194 364.52874756 C-42.36184352 370.67153266 -57.10153069 376.79687079 -71.8508606 382.89938354 C-81.77967241 387.00772604 -91.69741659 391.14110397 -101.6015625 395.30859375 C-103.09906288 395.93809937 -103.09906288 395.93809937 -104.6268158 396.58032227 C-109.48130753 398.62103849 -114.3343506 400.66506024 -119.18481445 402.71533203 C-120.92392466 403.44709751 -122.66309769 404.17871372 -124.40234375 404.91015625 C-125.60227463 405.41971107 -125.60227463 405.41971107 -126.82644653 405.93955994 C-132.33534661 408.25 -132.33534661 408.25 -134.5625 408.25 C-124.9362379 425.80901514 -114.25863529 441.56572073 -100.5625 456.25 C-99.81484375 457.06339844 -99.0671875 457.87679688 -98.296875 458.71484375 C-72.1885665 486.07669687 -32.89996209 500.59802159 4.50543213 501.51426697 C7.87563711 501.56390934 11.24470177 501.57432443 14.61523438 501.56567383 C17.17101043 501.56252035 19.72561627 501.5860564 22.28125 501.61132812 C37.06811766 501.66821298 51.63892839 499.94251441 65.9375 496.0625 C66.70755371 495.8552832 67.47760742 495.64806641 68.27099609 495.43457031 C77.3382362 492.87228921 85.92180506 489.25311996 94.4375 485.25 C95.17242676 484.90453125 95.90735352 484.5590625 96.66455078 484.203125 C112.99241004 476.37334861 127.13215729 465.55534271 139.921875 452.765625 C141.48845658 451.19904342 143.07521785 449.65207044 144.69140625 448.13671875 C154.33273852 438.95216702 161.74277533 428.05625267 169.4375 417.25 C172.49320411 417.86620618 174.65471103 418.84938715 177.24829102 420.56542969 C177.99171249 421.05343552 178.73513397 421.54144135 179.50108337 422.04423523 C180.30638992 422.58135635 181.11169647 423.11847748 181.94140625 423.671875 C182.79597916 424.23562332 183.65055206 424.79937164 184.53102112 425.38020325 C187.3579112 427.24765206 190.17903964 429.12360805 193 431 C194.97035344 432.30488842 196.94089645 433.60949062 198.91162109 434.91381836 C217.09413423 446.96361634 235.17580053 459.16300666 253.23869324 471.39108276 C261.61017785 477.05291564 270.02065553 482.65590098 278.4375 488.25 C275.7128712 493.12887746 272.9384876 497.30738219 269.25 501.5 C268.26729399 502.63591038 267.28553688 503.7726423 266.3046875 504.91015625 C265.57717285 505.75151123 265.57717285 505.75151123 264.83496094 506.60986328 C262.79203755 509.00755009 260.83838466 511.47453526 258.875 513.9375 C255.11180558 518.56912391 251.04275793 522.74983303 246.7734375 526.9140625 C244.7114635 528.9760365 242.81410062 531.08348612 240.9375 533.3125 C237.58905805 537.21770865 233.87638387 540.58785579 230.015625 543.98046875 C228.3812417 545.41922132 226.7641558 546.87806761 225.171875 548.36328125 C208.52643472 563.84807009 189.22328513 577.09834674 169.4375 588.25 C168.67904785 588.67780762 167.9205957 589.10561523 167.13916016 589.54638672 C108.38346279 622.30377913 36.56428687 634.37990183 -29.8125 623.6875 C-30.6262207 623.55817078 -31.43994141 623.42884155 -32.27832031 623.29559326 C-82.24362488 615.26562855 -130.1791449 595.98525738 -170.5625 565.25 C-171.09407715 564.84845703 -171.6256543 564.44691406 -172.17333984 564.03320312 C-181.11400239 557.25572738 -189.49445298 550.0433901 -197.5625 542.25 C-198.18334473 541.65106934 -198.80418945 541.05213867 -199.44384766 540.43505859 C-207.37370163 532.74339798 -214.73679312 524.94324132 -221.5625 516.25 C-222.26246094 515.42886719 -222.96242188 514.60773437 -223.68359375 513.76171875 C-278.00628265 449.94950488 -295.04105637 361.18410659 -289.05859375 279.6015625 C-288.47255282 272.77824429 -287.61380852 266.01632421 -286.5625 259.25 C-286.39089355 258.13157715 -286.21928711 257.0131543 -286.04248047 255.86083984 C-278.65828775 209.33184709 -262.32357597 164.19386758 -235.5625 125.25 C-235.13050293 124.61980957 -234.69850586 123.98961914 -234.25341797 123.34033203 C-218.44032973 100.42064181 -198.8430139 78.10757936 -176.5625 61.25 C-175.3653477 60.31318674 -174.16877509 59.37563242 -172.97265625 58.4375 C-163.92340943 51.41754678 -154.51322959 45.26277624 -144.63769531 39.47119141 C-142.77656921 38.37597343 -140.92974198 37.26074066 -139.0859375 36.13671875 C-106.01141423 16.44198472 -67.60404273 5.65417223 -29.5625 1.25 C-28.86133057 1.1557373 -28.16016113 1.06147461 -27.43774414 0.96435547 C-18.33975904 -0.14112734 -9.15065386 0.00607012 0 0 Z M-98.11328125 163.953125 C-100.23309844 165.94108754 -102.3989453 167.82134636 -104.625 169.6875 C-115.34720751 179.1074151 -123.56311221 190.52486996 -131.5625 202.25 C-131.98950195 202.87358398 -132.41650391 203.49716797 -132.85644531 204.13964844 C-143.24027371 219.5824849 -150.89033191 238.02516577 -154.5625 256.25 C-154.70768066 256.93739258 -154.85286133 257.62478516 -155.00244141 258.33300781 C-157.84661951 272.1353673 -160.52577156 289.5115852 -156.5625 303.25 C-149.26647455 300.9327089 -142.24723513 298.14141823 -135.1875 295.1875 C-133.93320004 294.66530013 -132.67880196 294.14333588 -131.42431641 293.62158203 C-127.90580391 292.15684721 -124.38926865 290.68742158 -120.87329102 289.21661377 C-118.48279505 288.21665908 -116.09200763 287.2174037 -113.70117188 286.21826172 C-103.7931736 282.07702479 -93.88787989 277.92934952 -83.98379517 273.77876282 C-74.90223793 269.97292722 -65.81917492 266.17069348 -56.73590088 262.36895752 C-52.26136683 260.49613195 -47.78693892 258.62305283 -43.3125 256.75 C-41.52083384 255.99999879 -39.72916717 255.24999879 -37.9375 254.5 C-37.050625 254.12875 -36.16375 253.7575 -35.25 253.375 C15.81249997 232.00000001 15.81249997 232.00000001 18.49971008 230.87512207 C20.29234381 230.12471678 22.08497687 229.37430988 23.87760925 228.62390137 C28.34197432 226.75508914 32.80635091 224.88630443 37.27075195 223.01757812 C45.50969918 219.5688545 53.74854076 216.11987922 61.98698425 212.66995239 C101.29140943 196.21088852 101.29140943 196.21088852 120.4375 188.25 C120.4375 176.05975329 107.12736733 163.92262298 99.1875 155.625 C93.43913849 150.00455752 87.22567665 145.5310452 80.4375 141.25 C78.81908203 140.21552734 78.81908203 140.21552734 77.16796875 139.16015625 C58.26426771 127.69469846 36.47711447 121.77164768 14.4375 121.25 C13.68243164 121.22421875 12.92736328 121.1984375 12.14941406 121.171875 C-28.77964827 119.85211483 -68.32738113 135.95003058 -98.11328125 163.953125 Z " fill="#FE4131" transform="translate(3541.5625,799.75)"/>
<path d="M0 0 C45.87 0 91.74 0 139 0 C139 303.93 139 607.86 139 921 C134.2571482 922.5809506 131.9957829 923.24989805 127.31866455 923.24723816 C126.2110527 923.25143265 125.10344086 923.25562714 123.96226501 923.25994873 C122.76203201 923.25432922 121.56179901 923.24870972 120.32519531 923.24291992 C119.049814 923.24481827 117.77443268 923.24671661 116.46040344 923.24867249 C112.9751503 923.25350368 109.49002597 923.24588819 106.0047884 923.23571944 C102.35554979 923.22691651 98.70631494 923.22869678 95.05706787 923.2290802 C88.93401948 923.22814496 82.81102079 923.21947744 76.68798828 923.20581055 C69.60446592 923.19005845 62.52099784 923.18481349 55.43745923 923.1855461 C48.62228723 923.1861558 41.80713293 923.18105749 34.99196625 923.17275429 C32.09088757 923.16922005 29.18981516 923.16739085 26.28873444 923.16686058 C22.24487225 923.16567225 18.20107473 923.15597166 14.15722656 923.14526367 C12.94889664 923.14571686 11.74056671 923.14617004 10.49562073 923.14663696 C9.39928818 923.14237198 8.30295563 923.13810699 7.17340088 923.13371277 C6.21699833 923.13203692 5.26059578 923.13036108 4.27521133 923.12863445 C2 923 2 923 0 922 C0 617.74 0 313.48 0 0 Z " fill="#01A94B" transform="translate(3052,486)"/>
<path d="" fill="#668D84" transform="translate(0,0)"/>
</svg>
