<?xml version="1.0" encoding="UTF-8"?>
<svg version="1.1" xmlns="http://www.w3.org/2000/svg" width="221" height="227">
<path d="M0 0 C0.7321875 0.57621094 1.464375 1.15242188 2.21875 1.74609375 C21.62351596 17.80122749 34.17358339 43.1820787 37 68 C38.48335414 98.99580164 32.06374962 127.58345064 10.80859375 151.0390625 C-6.09397843 169.06769489 -30.00006881 183.92730832 -55.3046875 185.16113281 C-58.51254169 185.19886195 -61.7201452 185.23113129 -64.92822266 185.24023438 C-66.96690213 185.24984399 -69.00452924 185.2808733 -71.04296875 185.3125 C-95.26853249 185.50830295 -119.06547697 176.35786166 -137 160 C-137.50096191 159.5467334 -138.00192383 159.0934668 -138.51806641 158.62646484 C-156.74197931 141.93443294 -170.68440571 118.49813791 -172.22265625 93.36157227 C-172.32044745 89.91337873 -172.37139006 86.47445413 -172.37060547 83.02539062 C-172.37495114 80.89890667 -172.41130516 78.77455272 -172.44921875 76.6484375 C-172.67505415 49.15039337 -160.07120437 24.64323433 -141.375 5 C-102.23241385 -32.95464727 -41.90443434 -33.37052566 0 0 Z " fill="#020304" transform="translate(178,34)"/>
<path d="M0 0 C1.58881255 1.02797755 3.16942212 2.06872868 4.7421875 3.12109375 C6.30660217 4.14428415 7.87172231 5.16639662 9.4375 6.1875 C10.24324463 6.7458252 11.04898926 7.30415039 11.87915039 7.87939453 C14.65196907 9.68838977 14.65196907 9.68838977 18.10327148 10.93701172 C22.19177849 12.74861203 24.66965671 14.16760712 27.6171875 17.55859375 C29.79232652 24.92758074 28.83120408 32.99096779 28.4296875 40.55859375 C28.36442934 42.68992854 28.30512219 44.82145438 28.25195312 46.953125 C28.10916516 52.15913559 27.89215364 57.35797836 27.6171875 62.55859375 C24.62060385 62.43339726 21.62485029 62.29927001 18.62890625 62.16015625 C17.79129761 62.12607666 16.95368896 62.09199707 16.09069824 62.05688477 C-1.20596875 61.22664475 -18.53316571 55.00078776 -32.3828125 44.55859375 C-33.51203125 43.73101562 -33.51203125 43.73101562 -34.6640625 42.88671875 C-40.00105574 38.94035051 -40.00105574 38.94035051 -41.3828125 37.55859375 C-41.61252618 27.41837565 -39.60203477 16.21985072 -34.09375 7.5234375 C-30.27149778 3.69096536 -24.77831804 1.75960152 -19.8828125 -0.37890625 C-19.15868164 -0.69859375 -18.43455078 -1.01828125 -17.68847656 -1.34765625 C-10.98351367 -4.06497879 -6.29201859 -3.74986416 0 0 Z " fill="#1DDBED" transform="translate(85.3828125,148.44140625)"/>
<path d="M0 0 C6.9398876 2.43334067 12.4338713 5.1399412 15.78515625 11.9765625 C16.61311756 14.6904357 17.25254667 17.20889484 17.78515625 19.9765625 C17.97078125 20.87117188 18.15640625 21.76578125 18.34765625 22.6875 C18.89128057 25.44337329 19.34433162 28.20269432 19.78515625 30.9765625 C20.03265625 32.2140625 20.28015625 33.4515625 20.53515625 34.7265625 C19.60748538 38.74646962 18.52503988 39.2663413 15.22265625 41.6015625 C13.41351702 42.73195912 11.60122207 43.85732786 9.78515625 44.9765625 C8.69487063 45.84288425 7.61059762 46.71688065 6.53515625 47.6015625 C2.19815874 50.7407226 -2.89810819 52.15803052 -7.92578125 53.8515625 C-11.31263642 54.95384967 -11.31263642 54.95384967 -14.83984375 56.6015625 C-24.09983579 60.37415185 -33.31454358 61.33253552 -43.21484375 61.9765625 C-43.44345377 55.39358457 -43.60081028 48.81163226 -43.70922852 42.22558594 C-43.75442966 39.98659012 -43.81580565 37.74785912 -43.89379883 35.50976562 C-44.00327226 32.28709665 -44.05406933 29.0679418 -44.09375 25.84375 C-44.16342735 24.34810013 -44.16342735 24.34810013 -44.23451233 22.82223511 C-44.23943999 16.00447546 -44.23943999 16.00447546 -41.3105011 13.0660553 C-39.00468048 11.51021151 -36.69783352 10.22627172 -34.21484375 8.9765625 C-32.70010319 8.07316921 -31.19012855 7.16168032 -29.6875 6.23828125 C-28.21905165 5.3774667 -26.74900361 4.51937502 -25.27734375 3.6640625 C-24.52388672 3.22255859 -23.77042969 2.78105469 -22.99414062 2.32617188 C-14.60956314 -2.57546564 -9.40906703 -2.76965659 0 0 Z " fill="#0497E8" transform="translate(158.21484375,149.0234375)"/>
<path d="M0 0 C4.34085605 2.53763937 6.84185781 5.01924661 9.09765625 9.48828125 C10.30782817 11.72211114 11.7486304 13.29273573 13.5 15.125 C15.68908167 17.59617982 16.16232417 18.35453967 16.75 21.75 C16.13448422 24.75918828 15.67164491 25.75189802 13.1875 27.5 C12.1975 27.83 11.2075 28.16 10.1875 28.5 C9.29674082 31.02494284 9.29674082 31.02494284 8.75 34.0625 C6.26520567 44.87263617 1.690783 52.82033104 -7.75 58.9375 C-12.03798786 61.30835469 -14.86391074 62.56041198 -19.8125 61.5 C-29.98817587 57.17491866 -37.01934701 48.90739283 -41.13671875 38.75 C-42.25970647 35.01103511 -42.56547494 31.39064466 -42.8125 27.5 C-43.451875 27.37625 -44.09125 27.2525 -44.75 27.125 C-45.7709375 26.815625 -45.7709375 26.815625 -46.8125 26.5 C-48.44401554 23.23696893 -48.49483408 20.01370166 -47.8125 16.5 C-46.51117396 14.46959226 -45.0632368 12.87575044 -43.375 11.15625 C-41.58829004 9.39690094 -41.58829004 9.39690094 -40.0625 6.375 C-31.44183731 -4.64029122 -11.95149273 -5.49887883 0 0 Z " fill="#0ACDF0" transform="translate(127.8125,68.5)"/>
<path d="M0 0 C1.64133743 0.03309148 3.28231665 0.09252243 4.921875 0.17578125 C5.76234375 0.19833984 6.6028125 0.22089844 7.46875 0.24414062 C9.53722464 0.30290411 11.60477988 0.3925824 13.671875 0.48828125 C13.81286621 1.10993164 13.95385742 1.73158203 14.09912109 2.37207031 C14.76209734 4.82163473 15.74897532 6.23511696 17.296875 8.23828125 C18.09351563 9.29982422 18.09351563 9.29982422 18.90625 10.3828125 C20.60361041 12.51829668 20.60361041 12.51829668 22.625 14.1875 C26.12199197 17.35042973 27.78956287 19.89772304 28.2890625 24.59765625 C28.36019213 26.12268204 28.40409964 27.64920105 28.421875 29.17578125 C28.43718262 29.91304443 28.45249023 30.65030762 28.46826172 31.40991211 C28.35819172 35.23072789 27.83930797 37.26956251 25.50390625 40.3203125 C21.74348595 43.19897908 17.81955006 44.95110392 13.51171875 46.86328125 C8.1513463 49.93056452 6.4812047 53.80181647 4.671875 59.48828125 C3.681875 59.98328125 3.681875 59.98328125 2.671875 60.48828125 C2.011875 61.47828125 1.351875 62.46828125 0.671875 63.48828125 C-0.19729387 62.08076904 -1.04797649 60.66182915 -1.890625 59.23828125 C-2.36628906 58.449375 -2.84195313 57.66046875 -3.33203125 56.84765625 C-4.45834651 54.179835 -4.3450563 53.14326357 -3.328125 50.48828125 C-2.668125 50.81828125 -2.008125 51.14828125 -1.328125 51.48828125 C-1.60527344 50.60785156 -1.88242187 49.72742188 -2.16796875 48.8203125 C-2.53019531 47.65886719 -2.89242187 46.49742187 -3.265625 45.30078125 C-3.62527344 44.15222656 -3.98492187 43.00367188 -4.35546875 41.8203125 C-5.82726315 36.77838228 -6.45072297 32.35645317 -6.42578125 27.09375 C-6.42255859 25.89169922 -6.41933594 24.68964844 -6.41601562 23.45117188 C-6.40763672 22.20529297 -6.39925781 20.95941406 -6.390625 19.67578125 C-6.38611328 18.41056641 -6.38160156 17.14535156 -6.37695312 15.84179688 C-6.36518751 12.72391015 -6.34874772 9.60611992 -6.328125 6.48828125 C-6.988125 6.15828125 -7.648125 5.82828125 -8.328125 5.48828125 C-6.0653737 1.54089917 -4.47058234 0.14643708 0 0 Z " fill="#030202" transform="translate(43.328125,106.51171875)"/>
<path d="M0 0 C21.12980299 10.72563997 21.12980299 10.72563997 29.44921875 15.87109375 C34.47501512 18.96976888 39.74282138 21.53057675 45.06811523 24.06835938 C48.39599604 25.68177897 51.00113842 27.1639793 53.51171875 29.87109375 C50.72361655 31.37779095 47.93067917 32.87529179 45.13671875 34.37109375 C44.34265625 34.80035156 43.54859375 35.22960938 42.73046875 35.671875 C41.96992188 36.07792969 41.209375 36.48398437 40.42578125 36.90234375 C39.72404785 37.27939453 39.02231445 37.65644531 38.29931641 38.04492188 C36.51171875 38.87109375 36.51171875 38.87109375 34.51171875 38.87109375 C34.14085782 32.31921737 34.14085782 32.31921737 36.01171875 30.05859375 C36.50671875 29.66671875 37.00171875 29.27484375 37.51171875 28.87109375 C37.51171875 28.21109375 37.51171875 27.55109375 37.51171875 26.87109375 C29.5695019 22.48921655 21.56329353 18.24058657 13.51147461 14.06469727 C12.20643744 13.38693316 10.90241878 12.70720474 9.59936523 12.02563477 C7.68815636 11.02597301 5.77414181 10.03188879 3.859375 9.0390625 C2.73539307 8.45406982 1.61141113 7.86907715 0.45336914 7.26635742 C-1.99597834 6.10459953 -3.84303205 5.28881788 -6.48828125 4.87109375 C-9.18713228 5.98877518 -11.65357642 7.1636202 -14.21875 8.53515625 C-14.96860672 8.92424164 -15.71846344 9.31332703 -16.49104309 9.71420288 C-18.89200333 10.96362669 -21.28374681 12.22968011 -23.67578125 13.49609375 C-25.26701597 14.3265988 -26.85880752 15.1560379 -28.45117188 15.984375 C-35.85382334 19.84554616 -43.21914839 23.76281797 -50.48828125 27.87109375 C-50.48828125 28.53109375 -50.48828125 29.19109375 -50.48828125 29.87109375 C-48.49543987 31.21510305 -46.49408454 32.54650667 -44.48828125 33.87109375 C-41.61328125 36.43359375 -41.61328125 36.43359375 -39.48828125 38.87109375 C-39.48828125 39.86109375 -39.48828125 40.85109375 -39.48828125 41.87109375 C-44.79407416 41.33722914 -48.55585717 39.49827961 -53.11328125 36.93359375 C-54.41780532 36.21584872 -55.72248822 35.49839226 -57.02734375 34.78125 C-58.16945313 34.15089844 -59.3115625 33.52054688 -60.48828125 32.87109375 C-61.81651624 32.1943264 -63.14687708 31.52136836 -64.48828125 30.87109375 C-63.07064346 27.32088472 -61.64500379 26.07019688 -58.26171875 24.35546875 C-57.40304199 23.91323975 -56.54436523 23.47101074 -55.65966797 23.01538086 C-54.73686035 22.55526611 -53.81405273 22.09515137 -52.86328125 21.62109375 C-51.43846436 20.89321655 -51.43846436 20.89321655 -49.98486328 20.15063477 C-47.1590186 18.71109387 -44.32545928 17.28814528 -41.48828125 15.87109375 C-40.74578125 15.49903809 -40.00328125 15.12698242 -39.23828125 14.74365234 C-36.65363613 13.44946586 -34.06902627 12.15562611 -31.47509766 10.88012695 C-27.74436944 9.03757494 -24.0703167 7.11502649 -20.41796875 5.12109375 C-19.55703613 4.65453369 -18.69610352 4.18797363 -17.80908203 3.70727539 C-16.12732551 2.79229124 -14.4509321 1.86736223 -12.78076172 0.93139648 C-11.63824951 0.31180054 -11.63824951 0.31180054 -10.47265625 -0.3203125 C-9.79944336 -0.69357666 -9.12623047 -1.06684082 -8.43261719 -1.45141602 C-5.18478415 -2.58310068 -3.0200161 -1.37014859 0 0 Z " fill="#32BDD0" transform="translate(117.48828125,22.12890625)"/>
<path d="M0 0 C11.78552529 5.39424259 21.11502842 21.52510598 26 33 C26 34.32 26 35.64 26 37 C26.763125 37.103125 27.52625 37.20625 28.3125 37.3125 C31.26644989 38.0681616 32.33726664 38.46214383 34 41 C34.4375 43.9375 34.4375 43.9375 34 47 C32.125 49.375 32.125 49.375 30 51 C29.34 51 28.68 51 28 51 C28.309375 51.845625 28.61875 52.69125 28.9375 53.5625 C30.01538821 57.0497854 30.56581304 60.38177535 31 64 C31.66 64 32.32 64 33 64 C33.41866341 71.62897772 32.80677565 79.06877578 31.8125 86.625 C31.71155029 87.51413086 31.61060059 88.40326172 31.5065918 89.31933594 C31.17153105 91.66272776 30.82942518 93.78205341 30 96 C27.59375 97.171875 27.59375 97.171875 25 98 C23.09729172 101.05453746 23.09729172 101.05453746 21.6875 104.625 C21.17574219 105.81351562 20.66398437 107.00203125 20.13671875 108.2265625 C19.76160156 109.14179688 19.38648438 110.05703125 19 111 C18.34 111 17.68 111 17 111 C18.42252308 106.52042011 20.15211535 102.25693036 22 97.9375 C27.56776781 84.22423202 27.26893115 70.58641173 27 56 C27.00169189 56.93344238 27.00169189 56.93344238 27.00341797 57.88574219 C26.92963533 75.36902037 25.29356939 91.81983135 16 107 C15.67 106.34 15.34 105.68 15 105 C16.10626899 101.76803326 17.3510199 98.62926896 18.64257812 95.46875 C22.7998986 84.9408593 23.27031227 75.14228964 23.125 63.875 C23.11494282 62.52344419 23.10582184 61.17188107 23.09765625 59.8203125 C23.07427319 56.54668442 23.04150061 53.27344006 23 50 C21.17703684 49.26020218 21.17703684 49.26020218 19 49 C16.21998438 50.58278549 14.06757802 52.93473192 11.8125 55.1875 C11.17554199 55.81865723 10.53858398 56.44981445 9.88232422 57.10009766 C6.05164755 61.16262839 4.04447999 64.11918435 3.625 69.875 C3.67526667 72.73042524 3.67526667 72.73042524 4 75 C5.65 75.33 7.3 75.66 9 76 C9.125 78.375 9.125 78.375 9 81 C8.34 81.66 7.68 82.32 7 83 C4.5 82.8125 4.5 82.8125 2 82 C1.34 81.01 0.68 80.02 0 79 C-2.02276681 78.49378487 -2.02276681 78.49378487 -4.3515625 78.48828125 C-5.62773437 78.43510742 -5.62773437 78.43510742 -6.9296875 78.38085938 C-7.81914062 78.35830078 -8.70859375 78.33574219 -9.625 78.3125 C-10.5221875 78.27833984 -11.419375 78.24417969 -12.34375 78.20898438 C-14.56237538 78.12637598 -16.7805994 78.05727281 -19 78 C-19 77.67 -19 77.34 -19 77 C-12.07 77 -5.14 77 2 77 C2 73.37 2 69.74 2 66 C-10.21 66 -22.42 66 -35 66 C-34.505 65.01 -34.505 65.01 -34 64 C-32.93563721 63.99589111 -31.87127441 63.99178223 -30.7746582 63.98754883 C-26.81388366 63.96572552 -22.85409805 63.91140394 -18.89379883 63.84741211 C-17.18198141 63.82425975 -15.4700221 63.80984285 -13.75805664 63.80444336 C-11.29223502 63.79513297 -8.82863626 63.75410221 -6.36328125 63.70703125 C-5.22080681 63.71293022 -5.22080681 63.71293022 -4.05525208 63.71894836 C-0.09656529 63.61100254 1.73987268 63.21715231 4.81665039 60.64868164 C5.53715576 59.7746167 6.25766113 58.90055176 7 58 C8.09380386 56.96587487 9.19209503 55.93645327 10.296875 54.9140625 C11.44810332 53.81790433 12.59914244 52.72154743 13.75 51.625 C14.33910156 51.08617187 14.92820313 50.54734375 15.53515625 49.9921875 C18.53175126 47.09892335 19.87268002 45.47189231 20.984375 41.3515625 C20.99900334 38.21378267 20.85310645 36.52168579 19.5 33.75 C19.13519531 33.00105469 18.77039063 32.25210938 18.39453125 31.48046875 C16.22359609 27.61900144 13.78845458 23.94348702 11.29296875 20.28515625 C10.65294922 19.15400391 10.65294922 19.15400391 10 18 C10.33 17.34 10.66 16.68 11 16 C14.75512339 20.21559621 17.40520073 24.28406689 19.8125 29.375 C20.27946289 30.33599609 20.27946289 30.33599609 20.75585938 31.31640625 C21.51140356 32.87398965 22.25679739 34.43649018 23 36 C23 26.62799506 14.80726415 17.74508321 9 11 C8.08244788 9.85487559 7.16563556 8.70915746 6.25 7.5625 C4.28174298 5.32087395 2.37546538 3.75960399 0 2 C0 1.34 0 0.68 0 0 Z " fill="#877666" transform="translate(165,61)"/>
<path d="M0 0 C2.5 2 2.5 2 4.5 5 C4.6953125 8.13671875 4.6953125 8.13671875 4.625 11.6875 C4.60695312 12.86699219 4.58890625 14.04648438 4.5703125 15.26171875 C4.54710937 16.16535156 4.52390625 17.06898437 4.5 18 C-0.4223904 17.15212414 -4.26118663 14.19506512 -8.4296875 11.59375 C-15.74517728 7.79639653 -26.01257587 7.82288694 -33.9765625 9.53125 C-38.95734026 11.3004838 -43.51047047 14.01047047 -47.25 17.75 C-47.6625 18.1625 -48.075 18.575 -48.5 19 C-49.16 19 -49.82 19 -50.5 19 C-51.40574613 5.66540418 -51.40574613 5.66540418 -49.41015625 1.99609375 C-37.34155119 -8.21580284 -13.09488275 -8.10635599 0 0 Z " fill="#12D0E9" transform="translate(135.5,53)"/>
<path d="M0 0 C0.66 0.99 1.32 1.98 2 3 C-0.31 3 -2.62 3 -5 3 C-5 5.31 -5 7.62 -5 10 C-3.35 10 -1.7 10 0 10 C0.33 8.68 0.66 7.36 1 6 C1.99 6 2.98 6 4 6 C4 6.66 4 7.32 4 8 C6.95980532 7.91329863 9.91646869 7.80646977 12.875 7.6875 C14.13763672 7.65366211 14.13763672 7.65366211 15.42578125 7.61914062 C16.23144531 7.58369141 17.03710938 7.54824219 17.8671875 7.51171875 C18.61081543 7.48553467 19.35444336 7.45935059 20.12060547 7.43237305 C22.40733826 7.13270409 22.40733826 7.13270409 24 4 C28.75 4.75 28.75 4.75 31 7 C30.9375 9.5 30.9375 9.5 30 12 C27.44140625 13.15625 27.44140625 13.15625 25 14 C25.83144531 14.92232422 25.83144531 14.92232422 26.6796875 15.86328125 C27.40414062 16.67152344 28.12859375 17.47976562 28.875 18.3125 C29.59429687 19.11300781 30.31359375 19.91351563 31.0546875 20.73828125 C33 23 33 23 35 26 C37.4157113 26.50904384 37.4157113 26.50904384 40.2265625 26.51171875 C41.2578125 26.54716797 42.2890625 26.58261719 43.3515625 26.61914062 C44.43179688 26.64169922 45.51203125 26.66425781 46.625 26.6875 C47.71296875 26.72166016 48.8009375 26.75582031 49.921875 26.79101562 C52.61448063 26.87368334 55.30675291 26.94277087 58 27 C58 27.66 58 28.32 58 29 C51.4 29 44.8 29 38 29 C38 34.94 38 40.88 38 47 C37.34 47 36.68 47 36 47 C36.04382813 45.82824219 36.08765625 44.65648437 36.1328125 43.44921875 C36.20712257 35.04412353 36.14512269 29.05755647 30.1875 22.75 C29.31480469 21.96109375 28.44210938 21.1721875 27.54296875 20.359375 C24.78645076 17.80186829 22.91299128 15.22845148 21 12 C21 11.34 21 10.68 21 10 C18.22813012 9.89212182 15.46044463 9.81276673 12.6875 9.75 C11.90181641 9.71648437 11.11613281 9.68296875 10.30664062 9.6484375 C8.13339453 9.61144608 6.14030099 9.61632366 4 10 C1.90343347 11.8426752 1.90343347 11.8426752 1 14 C1.33 14.33 1.66 14.66 2 15 C2.12205149 16.84626493 2.17978928 18.69684242 2.2109375 20.546875 C2.23929688 21.70316406 2.26765625 22.85945313 2.296875 24.05078125 C2.34796553 26.46991767 2.39250697 28.88920356 2.4296875 31.30859375 C2.64758331 39.56139746 3.93762113 47.02290014 6 55 C6.34514036 56.66426171 6.68265663 58.33021496 7 60 C6.34 60 5.68 60 5 60 C5.43768451 62.62610706 5.87306839 64.7602403 7.125 67.125 C8 69 8 69 7 72 C4.525 68.04 4.525 68.04 2 64 C1.505 64.99 1.505 64.99 1 66 C0.34 66 -0.32 66 -1 66 C-6.97890756 48.27572582 -9.68548254 31.49919379 -7.12109375 12.8203125 C-6.83928483 10.90009983 -6.83928483 10.90009983 -8 9 C-8.45014808 3.71076012 -8.45014808 3.71076012 -6.8125 1.125 C-4.36063578 -0.39684676 -2.83181098 -0.43566323 0 0 Z " fill="#64564F" transform="translate(35,98)"/>
<path d="M0 0 C0.66 0.33 1.32 0.66 2 1 C1.53199289 5.05606165 1.12046792 8.46588679 -1 12 C-0.34 12 0.32 12 1 12 C1.33 14.64 1.66 17.28 2 20 C2.99 20 3.98 20 5 20 C6.5625 21.4375 6.5625 21.4375 8 23 C10.56730774 24.28365387 12.44652997 24.13275635 15.3125 24.125 C16.25738281 24.12757813 17.20226562 24.13015625 18.17578125 24.1328125 C21.00756827 24.08444706 21.00756827 24.08444706 23.73046875 23.3671875 C24.47941406 23.24601562 25.22835937 23.12484375 26 23 C26.66 23.66 27.32 24.32 28 25 C28.99 25.33 29.98 25.66 31 26 C31 26.66 31 27.32 31 28 C32.32 28.33 33.64 28.66 35 29 C32.45979921 32.10468986 29.82629933 32.98485936 26 34 C24.68 34 23.36 34 22 34 C22 34.66 22 35.32 22 36 C21.01 36 20.02 36 19 36 C19 36.99 19 37.98 19 39 C17.02 39 15.04 39 13 39 C12.67 39.99 12.34 40.98 12 42 C8.00204108 42.95619733 4.29196078 43.1039592 0.1875 43.0625 C-0.97394531 43.05347656 -2.13539062 43.04445312 -3.33203125 43.03515625 C-4.21246094 43.02355469 -5.09289062 43.01195312 -6 43 C-6.0247636 38.65836985 -6.04289015 34.3167774 -6.05493164 29.97509766 C-6.05995288 28.49885339 -6.06677116 27.02261408 -6.07543945 25.54638672 C-6.08760189 23.42153702 -6.09325046 21.29675322 -6.09765625 19.171875 C-6.10289307 17.8940918 -6.10812988 16.61630859 -6.11352539 15.29980469 C-6.02087101 12.60665076 -5.72492809 10.55555818 -5 8 C-4.96154557 6.00036972 -4.95455719 3.99948367 -5 2 C-2.625 0.9375 -2.625 0.9375 0 0 Z " fill="#05A4E6" transform="translate(124,165)"/>
<path d="M0 0 C4.41982786 0.04761035 6.89327528 1.46314607 10.3125 4.3125 C12.41331332 7.46371998 12.84291608 9.41699009 12.7734375 13.17578125 C11.92934071 17.08867061 9.2302214 19.70469202 6.3125 22.3125 C3.09383746 23.92183127 -0.20688738 23.9204381 -3.6875 23.3125 C-6.72472197 20.86951712 -8.53174433 18.5461335 -10.6875 15.3125 C-11.04527637 10.4137158 -10.34423748 7.10058498 -7.1875 3.3125 C-6.3625 2.6525 -5.5375 1.9925 -4.6875 1.3125 C-3.6875 0.3125 -3.6875 0.3125 0 0 Z " fill="#B19769" transform="translate(137.6875,165.6875)"/>
<path d="M0 0 C0.66 0.99 1.32 1.98 2 3 C-0.31 3 -2.62 3 -5 3 C-5 5.31 -5 7.62 -5 10 C-3.35 10 -1.7 10 0 10 C0.33 8.68 0.66 7.36 1 6 C1.99 6 2.98 6 4 6 C4 6.66 4 7.32 4 8 C6.95980532 7.91329863 9.91646869 7.80646977 12.875 7.6875 C14.13763672 7.65366211 14.13763672 7.65366211 15.42578125 7.61914062 C16.23144531 7.58369141 17.03710938 7.54824219 17.8671875 7.51171875 C18.61081543 7.48553467 19.35444336 7.45935059 20.12060547 7.43237305 C22.40733826 7.13270409 22.40733826 7.13270409 24 4 C28.75 4.75 28.75 4.75 31 7 C30.9375 9.5 30.9375 9.5 30 12 C27.44140625 13.15625 27.44140625 13.15625 25 14 C25.83144531 14.92232422 25.83144531 14.92232422 26.6796875 15.86328125 C27.40414062 16.67152344 28.12859375 17.47976562 28.875 18.3125 C29.59429687 19.11300781 30.31359375 19.91351563 31.0546875 20.73828125 C33 23 33 23 35 26 C37.4157113 26.50904384 37.4157113 26.50904384 40.2265625 26.51171875 C41.2578125 26.54716797 42.2890625 26.58261719 43.3515625 26.61914062 C44.43179688 26.64169922 45.51203125 26.66425781 46.625 26.6875 C47.71296875 26.72166016 48.8009375 26.75582031 49.921875 26.79101562 C52.61448063 26.87368334 55.30675291 26.94277087 58 27 C58 27.66 58 28.32 58 29 C51.4 29 44.8 29 38 29 C38 34.94 38 40.88 38 47 C37.34 47 36.68 47 36 47 C36.04382813 45.82824219 36.08765625 44.65648437 36.1328125 43.44921875 C36.20712257 35.04412353 36.14512269 29.05755647 30.1875 22.75 C29.31480469 21.96109375 28.44210938 21.1721875 27.54296875 20.359375 C24.78645076 17.80186829 22.91299128 15.22845148 21 12 C21 11.34 21 10.68 21 10 C18.22813012 9.89212182 15.46044463 9.81276673 12.6875 9.75 C11.90181641 9.71648437 11.11613281 9.68296875 10.30664062 9.6484375 C8.13428033 9.61146115 6.13932774 9.61544022 4 10 C2.08743288 11.88077873 2.08743288 11.88077873 1 14 C-1.6875 14.25 -1.6875 14.25 -4 14 C-6.47182415 29.17257916 -4.90424178 43.24083646 -1 58 C-0.62007465 59.50592671 -0.24239326 61.0124217 0.1328125 62.51953125 C0.41898438 63.66808594 0.70515625 64.81664062 1 66 C0.34 66 -0.32 66 -1 66 C-6.97890756 48.27572582 -9.68548254 31.49919379 -7.12109375 12.8203125 C-6.83928483 10.90009983 -6.83928483 10.90009983 -8 9 C-8.45014808 3.71076012 -8.45014808 3.71076012 -6.8125 1.125 C-4.36063578 -0.39684676 -2.83181098 -0.43566323 0 0 Z " fill="#99897E" transform="translate(35,98)"/>
<path d="M0 0 C4 1 4 1 7 3 C7.36076355 4.94888306 7.36076355 4.94888306 7.34057617 7.35791016 C7.34034958 8.25869293 7.34012299 9.15947571 7.33988953 10.08755493 C7.32440567 11.06155243 7.30892181 12.03554993 7.29296875 13.0390625 C7.28872391 14.03505463 7.28447906 15.03104675 7.28010559 16.05722046 C7.2632768 19.24675225 7.22561676 22.43565833 7.1875 25.625 C7.1724586 27.78384506 7.15876925 29.9427 7.14648438 32.1015625 C7.11335967 37.40125612 7.06311896 42.70058337 7 48 C4.69 48 2.38 48 0 48 C0 32.16 0 16.32 0 0 Z " fill="#D1B16F" transform="translate(106,163)"/>
<path d="M0 0 C0.99 0.33 1.98 0.66 3 1 C2.34 1 1.68 1 1 1 C1.309375 1.845625 1.61875 2.69125 1.9375 3.5625 C3.01538821 7.0497854 3.56581304 10.38177535 4 14 C4.66 14 5.32 14 6 14 C6.41866341 21.62897772 5.80677565 29.06877578 4.8125 36.625 C4.71155029 37.51413086 4.61060059 38.40326172 4.5065918 39.31933594 C4.17153105 41.66272776 3.82942518 43.78205341 3 46 C0.59375 47.171875 0.59375 47.171875 -2 48 C-3.90270828 51.05453746 -3.90270828 51.05453746 -5.3125 54.625 C-5.82425781 55.81351563 -6.33601562 57.00203125 -6.86328125 58.2265625 C-7.23839844 59.14179688 -7.61351562 60.05703125 -8 61 C-8.66 61 -9.32 61 -10 61 C-8.57747692 56.52042011 -6.84788465 52.25693036 -5 47.9375 C0.56776781 34.22423202 0.26893115 20.58641173 0 6 C0.00112793 6.62229492 0.00225586 7.24458984 0.00341797 7.88574219 C-0.07036467 25.36902037 -1.70643061 41.81983135 -11 57 C-11.33 56.34 -11.66 55.68 -12 55 C-10.89373101 51.76803326 -9.6489801 48.62926896 -8.35742188 45.46875 C-4.60637188 35.96968815 -3.69484605 26.78075378 -3.4375 16.625 C-3.37748293 14.51290988 -3.31383255 12.40091907 -3.24609375 10.2890625 C-3.22216553 9.36818848 -3.1982373 8.44731445 -3.17358398 7.49853516 C-3.0123722 5.17808312 -2.77205733 3.19342198 -2 1 C-1.34 0.67 -0.68 0.34 0 0 Z " fill="#7E6E62" transform="translate(192,111)"/>
<path d="M0 0 C0 0.99 0 1.98 0 3 C-5.61 5.97 -11.22 8.94 -17 12 C-17 12.66 -17 13.32 -17 14 C-15.00715862 15.3440093 -13.00580329 16.67541292 -11 18 C-8.125 20.5625 -8.125 20.5625 -6 23 C-6 23.99 -6 24.98 -6 26 C-11.30579291 25.46613539 -15.06757592 23.62718586 -19.625 21.0625 C-20.92952407 20.34475497 -22.23420697 19.62729851 -23.5390625 18.91015625 C-24.68117188 18.27980469 -25.82328125 17.64945313 -27 17 C-28.32823499 16.32323265 -29.65859583 15.65027461 -31 15 C-29.55099428 11.27931122 -27.89363639 10.05364669 -24.38671875 8.23828125 C-23.46826172 7.75939453 -22.54980469 7.28050781 -21.60351562 6.78710938 C-20.64123047 6.30048828 -19.67894531 5.81386719 -18.6875 5.3125 C-17.73681641 4.81427734 -16.78613281 4.31605469 -15.80664062 3.80273438 C-5.11349362 -1.70449787 -5.11349362 -1.70449787 0 0 Z " fill="#2ACBDC" transform="translate(84,38)"/>
<path d="M0 0 C0.33 0 0.66 0 1 0 C1 4.95 1 9.9 1 15 C2.36125 13.906875 3.7225 12.81375 5.125 11.6875 C15.10933689 3.92887086 23.87982968 2.97111602 36.34375 4.23828125 C41.36907313 5.25776279 45.44139135 7.84801997 49.703125 10.5625 C52.22789272 12.193461 52.22789272 12.193461 56 14 C55.67 9.38 55.34 4.76 55 0 C55.66 0 56.32 0 57 0 C57 4.95 57 9.9 57 15 C56.01 15 55.02 15 54 15 C53.67 16.98 53.34 18.96 53 21 C52.16855469 19.86498047 52.16855469 19.86498047 51.3203125 18.70703125 C46.48229505 13.06267756 40.00568319 10.14183533 32.6328125 9.4453125 C23.39598748 8.99916012 15.02320168 10.00193994 7 15 C4.73598807 17.06457826 4.73598807 17.06457826 3 19 C3 18.01 3 17.02 3 16 C2.01 16 1.02 16 0 16 C0 10.72 0 5.44 0 0 Z " fill="#02161E" transform="translate(84,57)"/>
<path d="M0 0 C-0.99 1.485 -0.99 1.485 -2 3 C0.97 3.66 3.94 4.32 7 5 C7.33 4.34 7.66 3.68 8 3 C9.98 3.99 11.96 4.98 14 6 C14 6.66 14 7.32 14 8 C14.66 8 15.32 8 16 8 C15.67 8.66 15.34 9.32 15 10 C14.34 9.67 13.68 9.34 13 9 C7.46591797 8.42779063 2.65491787 7.99406953 -2.1875 10.9375 C-4.56111239 14.94808644 -5.3042729 18.35138629 -5 23 C-3.55733548 26.31812839 -1.67051114 28.58382325 1 31 C-1.475 30.01 -1.475 30.01 -4 29 C-4 28.34 -4 27.68 -4 27 C-4.99 27 -5.98 27 -7 27 C-7.28875 25.88625 -7.5775 24.7725 -7.875 23.625 C-8.69241329 19.99708908 -8.69241329 19.99708908 -11 18 C-11 17.34 -11 16.68 -11 16 C-10.34 15.67 -9.68 15.34 -9 15 C-8.59270772 12.67843403 -8.25561323 10.3431213 -8 8 C-9.65 8.33 -11.3 8.66 -13 9 C-12.979375 10.19625 -12.95875 11.3925 -12.9375 12.625 C-12.89475731 15.10407603 -13.05151084 17.2902398 -13.48632812 19.74023438 C-14.00318876 23.02023588 -14.20583057 26.17491709 -14.31640625 29.4921875 C-14.35830078 30.69101563 -14.40019531 31.88984375 -14.44335938 33.125 C-14.48267578 34.3625 -14.52199219 35.6 -14.5625 36.875 C-14.60568359 38.13570312 -14.64886719 39.39640625 -14.69335938 40.6953125 C-14.79909102 43.79677423 -14.90118571 46.89831145 -15 50 C-15.33 50 -15.66 50 -16 50 C-16.12348196 43.93114683 -16.21428371 37.86302258 -16.2746582 31.79321289 C-16.2998222 29.72797919 -16.33395684 27.66283471 -16.37719727 25.59790039 C-16.43776616 22.63144953 -16.46619036 19.66617448 -16.48828125 16.69921875 C-16.51408768 15.7741301 -16.5398941 14.84904144 -16.56648254 13.8959198 C-16.56753709 11.49264662 -16.53786934 9.34262348 -16 7 C-13.53198242 5.01879883 -13.53198242 5.01879883 -11 4 C-10.67 3.34 -10.34 2.68 -10 2 C-8.22265625 1.11328125 -8.22265625 1.11328125 -6.0625 0.3125 C-5.35222656 0.04050781 -4.64195312 -0.23148438 -3.91015625 -0.51171875 C-2 -1 -2 -1 0 0 Z " fill="#11B0E1" transform="translate(133,158)"/>
<path d="M0 0 C2.55744937 1.02378857 3.3673602 2.18256265 4.91723633 4.4440918 C5.4322168 5.18530273 5.94719727 5.92651367 6.4777832 6.69018555 C7.00307617 7.47006836 7.52836914 8.24995117 8.06958008 9.0534668 C8.59874023 9.81788086 9.12790039 10.58229492 9.6730957 11.36987305 C17.00708008 22.02577506 17.00708008 22.02577506 17.00708008 24.8034668 C13.53843469 24.18350529 11.43532067 22.8410054 8.63208008 20.7409668 C3.83565232 17.26892581 -1.1393107 14.35663929 -6.34594727 11.55712891 C-9.44714361 9.85255829 -10.98689622 8.81250235 -12.99291992 5.8034668 C-11.25169443 4.76773784 -9.49955398 3.7503416 -7.74291992 2.7409668 C-6.28112305 1.88825195 -6.28112305 1.88825195 -4.78979492 1.01831055 C-1.99291992 -0.1965332 -1.99291992 -0.1965332 0 0 Z " fill="#27CFE0" transform="translate(93.992919921875,134.196533203125)"/>
<path d="M0 0 C3.75305445 0.68063405 6.50567892 1.637634 9.8125 3.5625 C10.60269531 4.01753906 11.39289063 4.47257813 12.20703125 4.94140625 C12.79871094 5.29074219 13.39039063 5.64007813 14 6 C14 6.66 14 7.32 14 8 C13.37996094 8.31710938 12.75992188 8.63421875 12.12109375 8.9609375 C5.42692438 12.4882873 -0.83148918 16.44884146 -7.04711914 20.74755859 C-11.79633085 24 -11.79633085 24 -14 24 C-13.43908667 20.07967061 -12.32373342 17.5882409 -10.05859375 14.35546875 C-9.47529297 13.51435547 -8.89199219 12.67324219 -8.29101562 11.80664062 C-7.37352539 10.51016602 -7.37352539 10.51016602 -6.4375 9.1875 C-5.82197266 8.30384766 -5.20644531 7.42019531 -4.57226562 6.50976562 C-3.05549953 4.33455843 -1.53128083 2.16500186 0 0 Z " fill="#16A9D4" transform="translate(128,135)"/>
<path d="M0 0 C0.5775 0.7425 1.155 1.485 1.75 2.25 C3.86462626 4.99659059 3.86462626 4.99659059 6.25 6.9375 C8 9 8 9 8.4375 12.0625 C8 15 8 15 6.6875 16.8125 C5 18 5 18 2 19 C1.10924082 21.52494284 1.10924082 21.52494284 0.5625 24.5625 C-1.92229433 35.37263617 -6.496717 43.32033104 -15.9375 49.4375 C-20.1364781 51.7954847 -23.12073153 52.86104738 -28 52 C-30.9375 50.5 -30.9375 50.5 -33 49 C-29.7169902 47.3584951 -26.57454967 48.48111376 -23 49 C-22.9175 48.236875 -22.835 47.47375 -22.75 46.6875 C-22 44 -22 44 -20.1875 42.1875 C-18 41 -18 41 -14 41 C-13.67 40.01 -13.34 39.02 -13 38 C-11.15234375 37.26953125 -11.15234375 37.26953125 -8.9375 36.8125 C-7.83728516 36.57466797 -7.83728516 36.57466797 -6.71484375 36.33203125 C-6.14894531 36.22246094 -5.58304688 36.11289063 -5 36 C-5 34.68 -5 33.36 -5 32 C-4.34 32 -3.68 32 -3 32 C-2.34 27.05 -1.68 22.1 -1 17 C0.65 16.67 2.3 16.34 4 16 C4 15.34 4 14.68 4 14 C4.66 14 5.32 14 6 14 C6 12.35 6 10.7 6 9 C4.02 9 2.04 9 0 9 C-0.495 7.515 -0.495 7.515 -1 6 C-0.67 5.34 -0.34 4.68 0 4 C0 2.68 0 1.36 0 0 Z " fill="#0ABBEC" transform="translate(136,78)"/>
<path d="M0 0 C1.6489278 0.86915446 3.29394336 1.74573102 4.9375 2.625 C5.85402344 3.11226562 6.77054687 3.59953125 7.71484375 4.1015625 C9.34099609 5.04128906 9.34099609 5.04128906 11 6 C11.74536011 6.36569092 12.49072021 6.73138184 13.25866699 7.1081543 C19.52326025 10.55938788 19.52326025 10.55938788 20.79164124 14.3921814 C21.04233409 17.32877413 21.01312567 20.14166548 20.87890625 23.0859375 C20.86617172 24.14285797 20.85343719 25.19977844 20.84031677 26.28872681 C20.79006963 29.65318622 20.67719072 33.01218149 20.5625 36.375 C20.51734227 38.66007815 20.47627996 40.94524116 20.43945312 43.23046875 C20.34040873 48.82216592 20.18996695 54.41069272 20 60 C18.08364783 60.05423638 16.16685075 60.09289963 14.25 60.125 C13.18265625 60.14820313 12.1153125 60.17140625 11.015625 60.1953125 C8 60 8 60 4 58 C10.435 57.505 10.435 57.505 17 57 C17.12349116 51.07356401 17.21428772 45.14787471 17.2746582 39.22045898 C17.29982071 37.20372475 17.3339543 35.18708187 17.37719727 33.1706543 C17.43777325 30.2736968 17.46619169 27.37794339 17.48828125 24.48046875 C17.51408768 23.57725388 17.5398941 22.674039 17.56648254 21.74345398 C17.56754026 19.38901497 17.53721008 17.29268105 17 15 C14.66274053 12.94701286 14.66274053 12.94701286 12 12 C11.67 11.34 11.34 10.68 11 10 C8.98330173 8.86649466 8.98330173 8.86649466 7 8 C7 7.34 7 6.68 7 6 C6.34 6 5.68 6 5 6 C5 5.34 5 4.68 5 4 C4.01 4 3.02 4 2 4 C2 3.34 2 2.68 2 2 C1.34 2 0.68 2 0 2 C0 1.34 0 0.68 0 0 Z " fill="#23C5DB" transform="translate(86,150)"/>
<path d="M0 0 C0.66 0.33 1.32 0.66 2 1 C-1.35745703 5.83473813 -5.21522801 9.11639565 -11.0078125 10.46875 C-12.66377457 10.7101048 -14.33208991 10.86384407 -16 11 C-16.33 11.99 -16.66 12.98 -17 14 C-18.98 14.99 -18.98 14.99 -21 16 C-21.33 30.19 -21.66 44.38 -22 59 C-16.06 58.67 -10.12 58.34 -4 58 C-6.55914724 60.55914724 -8.20441649 60.56934885 -11.75 61.125 C-13.28914063 61.37636719 -13.28914063 61.37636719 -14.859375 61.6328125 C-17.941027 61.99310515 -20.90105847 62.02536577 -24 62 C-24.22861002 55.41702207 -24.38596653 48.83506976 -24.49438477 42.24902344 C-24.53958591 40.01002762 -24.6009619 37.77129662 -24.67895508 35.53320312 C-24.78842851 32.31053415 -24.83922558 29.0913793 -24.87890625 25.8671875 C-24.9485836 24.37153763 -24.9485836 24.37153763 -25.01966858 22.84567261 C-25.02174867 19.96771656 -24.91618585 17.73132421 -24 15 C-21.31308782 12.31868328 -18.3647311 10.70358541 -15 9 C-13.62884907 8.14927359 -12.26408607 7.28803115 -10.91015625 6.41015625 C-9.62895064 5.62540165 -8.34641407 4.8428155 -7.0625 4.0625 C-6.07540039 3.44665039 -6.07540039 3.44665039 -5.06835938 2.81835938 C-3.41584706 1.81535036 -1.7113114 0.8990202 0 0 Z " fill="#2C809D" transform="translate(139,149)"/>
<path d="M0 0 C6.59931916 0.34733259 13.01510366 3.95489874 17.60986328 8.64233398 C19.5535148 11.93875877 19.43610858 14.57987238 19.51171875 18.390625 C19.53864555 19.44754547 19.53864555 19.44754547 19.56611633 20.52581787 C19.62011858 22.76715179 19.65408088 25.00827405 19.6875 27.25 C19.72068218 28.77346689 19.75517269 30.29690589 19.79101562 31.8203125 C19.87583738 35.5466716 19.94269724 39.27310463 20 43 C17.525 43.495 17.525 43.495 15 44 C15.00523682 43.410979 15.01047363 42.82195801 15.01586914 42.21508789 C15.03689803 39.49756983 15.04974146 36.78006899 15.0625 34.0625 C15.07087891 33.13630859 15.07925781 32.21011719 15.08789062 31.25585938 C15.57537032 19.42745042 15.57537032 19.42745042 11 9 C8.31332423 6.99247459 8.31332423 6.99247459 5.3125 5.3125 C3.51117639 4.25880746 1.73048408 3.1663874 0 2 C0 1.34 0 0.68 0 0 Z " fill="#439FB7" transform="translate(130,42)"/>
<path d="M0 0 C4.41982786 0.04761035 6.89327528 1.46314607 10.3125 4.3125 C12.41331332 7.46371998 12.84291608 9.41699009 12.7734375 13.17578125 C11.92934071 17.08867061 9.2302214 19.70469202 6.3125 22.3125 C3.09383746 23.92183127 -0.20688738 23.9204381 -3.6875 23.3125 C-6.72472197 20.86951712 -8.53174433 18.5461335 -10.6875 15.3125 C-11.04527637 10.4137158 -10.34423748 7.10058498 -7.1875 3.3125 C-6.3625 2.6525 -5.5375 1.9925 -4.6875 1.3125 C-3.6875 0.3125 -3.6875 0.3125 0 0 Z M-7.6875 8.3125 C-8.52083333 11.8125 -8.52083333 11.8125 -7.6875 15.3125 C-5.23749553 18.69927089 -3.82357554 20.09948584 0.3125 20.875 C3.97157504 20.18892343 5.66417676 18.88515686 8.3125 16.3125 C9.75680855 13.42388291 9.68938506 11.51602299 9.3125 8.3125 C6.70460172 4.67724785 5.2422642 3.47852932 0.8125 2.6875 C-3.64600936 3.48366239 -5.09533917 4.62063458 -7.6875 8.3125 Z " fill="#08161C" transform="translate(137.6875,165.6875)"/>
<path d="M0 0 C0.66 0.33 1.32 0.66 2 1 C0.02 1.99 0.02 1.99 -2 3 C-2 3.66 -2 4.32 -2 5 C-3.62102968 6.71108689 -5.29503463 8.37253306 -7 10 C-7.763125 10.763125 -8.52625 11.52625 -9.3125 12.3125 C-9.869375 12.869375 -10.42625 13.42625 -11 14 C-10.67 14.33 -10.34 14.66 -10 15 C-6.37 11.04 -2.74 7.08 1 3 C1.66 3.33 2.32 3.66 3 4 C2.52691406 4.43828125 2.05382812 4.8765625 1.56640625 5.328125 C-8.10057224 14.59937922 -15.03599691 25.11034754 -21 37 C-22.32 36.67 -23.64 36.34 -25 36 C-22.93042933 22.72620191 -11.82594387 9.62653288 -2 1 C-1.34 0.67 -0.68 0.34 0 0 Z " fill="#6A5A4C" transform="translate(60,62)"/>
<path d="M0 0 C4.14032846 1.54385129 7.93553053 3.51028938 11.8125 5.625 C12.40998047 5.94984375 13.00746094 6.2746875 13.62304688 6.609375 C15.08337135 7.40379151 16.54187491 8.20155376 18 9 C16.77667897 11.44664205 15.88755702 11.74337967 13.47265625 12.9453125 C12.76302734 13.29980469 12.05339844 13.65429688 11.32226562 14.01953125 C10.57654297 14.38433594 9.83082031 14.74914063 9.0625 15.125 C7.9497168 15.68380859 7.9497168 15.68380859 6.81445312 16.25390625 C1.26694139 19 1.26694139 19 -1 19 C-1.37086093 12.44812362 -1.37086093 12.44812362 0.5 10.1875 C0.995 9.795625 1.49 9.40375 2 9 C2 8.34 2 7.68 2 7 C0.02 6.01 -1.96 5.02 -4 4 C-2.68 3.67 -1.36 3.34 0 3 C0 3.66 0 4.32 0 5 C0.99 4.67 1.98 4.34 3 4 C3 3.34 3 2.68 3 2 C2.01 2 1.02 2 0 2 C0 1.34 0 0.68 0 0 Z " fill="#2399B7" transform="translate(153,42)"/>
<path d="M0 0 C2.9375 2.0625 2.9375 2.0625 5 4 C3 5 3 5 1.16015625 4.44140625 C0.46792969 4.15136719 -0.22429687 3.86132812 -0.9375 3.5625 C-4.35835992 2.13660886 -6.59729702 1.49305822 -10.2265625 2.8046875 C-11.01804687 3.15789062 -11.80953125 3.51109375 -12.625 3.875 C-13.42164062 4.22304687 -14.21828125 4.57109375 -15.0390625 4.9296875 C-17.16060853 5.84552094 -17.16060853 5.84552094 -18 8 C-18.66 8 -19.32 8 -20 8 C-20 9.32 -20 10.64 -20 12 C-20.99 12.33 -21.98 12.66 -23 13 C-23.33 12.34 -23.66 11.68 -24 11 C-24.66 11 -25.32 11 -26 11 C-26.28875 11.639375 -26.5775 12.27875 -26.875 12.9375 C-28 15 -28 15 -30 16 C-30.63801836 18.5315866 -31.16687368 20.99839502 -31.625 23.5625 C-31.7590625 24.27341797 -31.893125 24.98433594 -32.03125 25.71679688 C-32.36191847 27.47642553 -32.68195767 29.23804548 -33 31 C-33.66 31 -34.32 31 -35 31 C-34.91253716 32.43861294 -34.80434652 33.87597508 -34.6875 35.3125 C-34.62949219 36.11300781 -34.57148437 36.91351563 -34.51171875 37.73828125 C-33.91793306 40.36272334 -33.04219706 41.30820672 -31 43 C-34 43 -34 43 -35.6875 41.859375 C-38.62374804 37.69969027 -36.79437708 31.72213042 -36 27 C-32.56075602 11.48510318 -32.56075602 11.48510318 -26.484375 7.27734375 C-22.87118593 5.41961918 -19.22320427 3.68891043 -15.5 2.0625 C-14.77586914 1.7428125 -14.05173828 1.423125 -13.30566406 1.09375 C-8.50055388 -0.8536186 -5.17265414 -1.34604383 0 0 Z " fill="#3FB3BA" transform="translate(81,146)"/>
<path d="M0 0 C2.00720923 0.28674418 4.0085944 0.61866701 6 1 C5.8125 3.375 5.8125 3.375 5 6 C2.44921875 7.1640625 2.44921875 7.1640625 0 8 C0.55429687 8.61488281 1.10859375 9.22976562 1.6796875 9.86328125 C2.40414062 10.67152344 3.12859375 11.47976562 3.875 12.3125 C4.59429687 13.11300781 5.31359375 13.91351563 6.0546875 14.73828125 C8 17 8 17 10 20 C12.4157113 20.50904384 12.4157113 20.50904384 15.2265625 20.51171875 C16.2578125 20.54716797 17.2890625 20.58261719 18.3515625 20.61914062 C19.43179688 20.64169922 20.51203125 20.66425781 21.625 20.6875 C22.71296875 20.72166016 23.8009375 20.75582031 24.921875 20.79101562 C27.61448063 20.87368334 30.30675291 20.94277087 33 21 C33 21.66 33 22.32 33 23 C26.4 23 19.8 23 13 23 C13 28.94 13 34.88 13 41 C12.34 41 11.68 41 11 41 C11.04382813 39.82824219 11.08765625 38.65648437 11.1328125 37.44921875 C11.20644735 28.9121215 11.0819673 22.98903919 5.0625 16.5625 C3.39021099 15.02495658 1.70522197 13.50093581 0 12 C-2.79921583 7.80117625 -1.86558093 5.87872887 -1 1 C-0.67 0.67 -0.34 0.34 0 0 Z " fill="#80766E" transform="translate(60,104)"/>
<path d="M0 0 C0.33 0 0.66 0 1 0 C1.33 2.31 1.66 4.62 2 7 C2.66 7 3.32 7 4 7 C4.41866341 14.62897772 3.80677565 22.06877578 2.8125 29.625 C2.71155029 30.51413086 2.61060059 31.40326172 2.5065918 32.31933594 C2.17153105 34.66272776 1.82942518 36.78205341 1 39 C-1.40625 40.171875 -1.40625 40.171875 -4 41 C-5.90270828 44.05453746 -5.90270828 44.05453746 -7.3125 47.625 C-7.82425781 48.81351563 -8.33601562 50.00203125 -8.86328125 51.2265625 C-9.23839844 52.14179688 -9.61351562 53.05703125 -10 54 C-10.66 54 -11.32 54 -12 54 C-10.48728707 49.28562282 -8.73227046 44.71041415 -6.875 40.125 C-6.59785156 39.43664062 -6.32070312 38.74828125 -6.03515625 38.0390625 C-5.35835767 36.35873499 -4.67940197 34.67927658 -4 33 C-3.34 33 -2.68 33 -2 33 C-0.98057785 26.0096767 -0.68400077 19.05557945 -0.4375 12 C-0.39431641 10.84371094 -0.35113281 9.68742187 -0.30664062 8.49609375 C-0.20132083 5.66416146 -0.09918913 2.83215253 0 0 Z " fill="#605149" transform="translate(194,118)"/>
<path d="M0 0 C0 0.66 0 1.32 0 2 C3.3 2.33 6.6 2.66 10 3 C10 3.66 10 4.32 10 5 C9.4445752 4.95069336 8.88915039 4.90138672 8.31689453 4.85058594 C1.98599745 4.53196604 -1.81592965 5.92270444 -7.125 9.25 C-7.78886719 9.64574219 -8.45273438 10.04148438 -9.13671875 10.44921875 C-10.45148931 11.23396439 -11.76186753 12.02612364 -13.06738281 12.82617188 C-16.00991836 14.61340165 -19.00428271 16.30372372 -22 18 C-22 17.01 -22 16.02 -22 15 C-23.32 15.33 -24.64 15.66 -26 16 C-22.29547264 11.73878136 -17.6681705 9.17098636 -12.875 6.3125 C-12.05128906 5.81427734 -11.22757813 5.31605469 -10.37890625 4.80273438 C-2.41562076 0 -2.41562076 0 0 0 Z " fill="#011017" transform="translate(142,143)"/>
<path d="M0 0 C17.17272541 8.05524748 17.17272541 8.05524748 22 13 C22.265625 15.71484375 22.265625 15.71484375 22 18 C17.50390886 16.39486957 13.61705842 14.09896785 9.5625 11.625 C8.91990234 11.23828125 8.27730469 10.8515625 7.61523438 10.453125 C3.67241543 8.06741933 -0.18389215 5.58339295 -4 3 C-2.68 2.67 -1.36 2.34 0 2 C0 1.34 0 0.68 0 0 Z " fill="#04100F" transform="translate(85,144)"/>
<path d="M0 0 C0.66 0 1.32 0 2 0 C2.50469616 4.22862004 3.00293584 8.45797659 3.5 12.6875 C3.64308594 13.88568359 3.78617188 15.08386719 3.93359375 16.31835938 C4.06894531 17.47529297 4.20429688 18.63222656 4.34375 19.82421875 C4.53227539 21.41882935 4.53227539 21.41882935 4.72460938 23.0456543 C4.97394201 25.72045416 5.05207267 28.31608769 5 31 C2.69 31 0.38 31 -2 31 C-1.85923111 27.52060949 -1.71144333 24.04154941 -1.5625 20.5625 C-1.52318359 19.58861328 -1.48386719 18.61472656 -1.44335938 17.61132812 C-1.18631833 11.69938401 -0.72280379 5.87354003 0 0 Z " fill="#D0B181" transform="translate(147,87)"/>
<path d="M0 0 C2.60860311 1.02881414 3.40588003 2.15721266 4.98266602 4.45800781 C5.49764648 5.19921875 6.01262695 5.94042969 6.54321289 6.70410156 C7.33115234 7.87392578 7.33115234 7.87392578 8.13500977 9.06738281 C8.66416992 9.83179688 9.19333008 10.59621094 9.73852539 11.38378906 C17.07250977 22.03969108 17.07250977 22.03969108 17.07250977 24.81738281 C13.41869192 24.19294281 11.10568041 22.61202516 8.13500977 20.44238281 C4.85962421 18.06304554 1.5707303 15.85748996 -1.92749023 13.81738281 C1.88740651 12.35011483 4.36262599 13.38401862 8.07250977 14.81738281 C7.59813477 14.44613281 7.12375977 14.07488281 6.63500977 13.69238281 C4.55045175 11.19091319 4.42629486 9.00144863 4.07250977 5.81738281 C3.41250977 5.81738281 2.75250977 5.81738281 2.07250977 5.81738281 C1.74250977 5.15738281 1.41250977 4.49738281 1.07250977 3.81738281 C-1.95683514 3.15965853 -1.95683514 3.15965853 -4.92749023 2.81738281 C-2.48521741 -0.23545822 -2.48521741 -0.23545822 0 0 Z " fill="#3EA9AF" transform="translate(93.927490234375,134.1826171875)"/>
<path d="M0 0 C4.97209562 1.76429199 9.43438061 4.3939166 14 7 C12.125 10.875 12.125 10.875 11 12 C10.63239269 14.32817964 10.29758419 16.6618385 10 19 C11.32 18.67 12.64 18.34 14 18 C14 18.66 14 19.32 14 20 C11.69 20.66 9.38 21.32 7 22 C6.98582031 21.26394531 6.97164062 20.52789062 6.95703125 19.76953125 C6.71928219 13.4032049 6.71928219 13.4032049 3.625 8 C2.75875 7.34 1.8925 6.68 1 6 C0 5 -1 4 -2 3 C-1.34 2.67 -0.68 2.34 0 2 C0 1.34 0 0.68 0 0 Z " fill="#011119" transform="translate(142,42)"/>
<path d="M0 0 C4.29 0 8.58 0 13 0 C12 4 12 4 9 6 C7.98510466 8.78280791 7.85528929 11.45737731 7.79467773 14.40136719 C7.77473251 15.2619574 7.75478729 16.12254761 7.73423767 17.00921631 C7.70916893 18.38910736 7.70916893 18.38910736 7.68359375 19.796875 C7.66281265 20.74564514 7.64203156 21.69441528 7.62062073 22.67193604 C7.55532066 25.69788482 7.49633112 28.7239192 7.4375 31.75 C7.3942962 33.80339421 7.35068131 35.85677982 7.30664062 37.91015625 C7.19965927 42.9400168 7.09833677 47.96996332 7 53 C6.67 53 6.34 53 6 53 C5.67 38.15 5.34 23.3 5 8 C3.02 7.01 1.04 6.02 -1 5 C-0.67 3.35 -0.34 1.7 0 0 Z " fill="#0D0C06" transform="translate(107,158)"/>
<path d="M0 0 C1.70131018 2.97053488 2.25570413 5.11421044 2.265625 8.52734375 C2.26997559 9.39536621 2.27432617 10.26338867 2.27880859 11.15771484 C2.26930176 12.07504395 2.25979492 12.99237305 2.25 13.9375 C2.24178223 14.88318848 2.23356445 15.82887695 2.22509766 16.80322266 C2.00702877 30.5228038 0.17297702 46.01980959 -9 57 C-9.66 56.34 -10.32 55.68 -11 55 C-10.69707031 54.47535156 -10.39414063 53.95070312 -10.08203125 53.41015625 C-0.75181732 36.15643757 -0.10447759 19.30377049 0 0 Z " fill="#210F07" transform="translate(191,113)"/>
<path d="M0 0 C0.5775 0.7425 1.155 1.485 1.75 2.25 C3.86462626 4.99659059 3.86462626 4.99659059 6.25 6.9375 C8 9 8 9 8.4375 12.0625 C8 15 8 15 6.6875 16.8125 C5 18 5 18 2 19 C1.10924082 21.52494284 1.10924082 21.52494284 0.5625 24.5625 C-0.86691392 30.81618592 -2.33254386 36.62892787 -7.25 41 C-8.11625 41.495 -8.11625 41.495 -9 42 C-9 41.01 -9 40.02 -9 39 C-8.34 39 -7.68 39 -7 39 C-7 38.01 -7 37.02 -7 36 C-6.34 36 -5.68 36 -5 36 C-5 34.68 -5 33.36 -5 32 C-4.34 32 -3.68 32 -3 32 C-2.34 27.05 -1.68 22.1 -1 17 C0.65 16.67 2.3 16.34 4 16 C4 15.34 4 14.68 4 14 C4.66 14 5.32 14 6 14 C6 12.35 6 10.7 6 9 C4.02 9 2.04 9 0 9 C-0.33 8.01 -0.66 7.02 -1 6 C-0.67 5.34 -0.34 4.68 0 4 C0 2.68 0 1.36 0 0 Z " fill="#219CC9" transform="translate(136,78)"/>
<path d="M0 0 C2 1 4 2 6 3 C6.33 2.34 6.66 1.68 7 1 C15.64009464 10.03193567 26.37977628 22.03821023 28 35 C27.34 35 26.68 35 26 35 C25.46890625 33.90300781 24.9378125 32.80601563 24.390625 31.67578125 C23.67740839 30.22119474 22.96384852 28.7667765 22.25 27.3125 C21.90195313 26.59126953 21.55390625 25.87003906 21.1953125 25.12695312 C18.33061585 19.31798492 15.09246967 14.72933161 10.125 10.5 C9.43664062 9.90832031 8.74828125 9.31664063 8.0390625 8.70703125 C6.21070008 7.17639068 4.35884215 5.68074049 2.5 4.1875 C1.675 3.465625 0.85 2.74375 0 2 C0 1.34 0 0.68 0 0 Z " fill="#594B41" transform="translate(162,64)"/>
<path d="M0 0 C3.84161667 0.68832841 6.82867898 2.43580248 10.1875 4.375 C11.25355469 4.98085938 12.31960937 5.58671875 13.41796875 6.2109375 C16 8 16 8 17 11 C17.99 11 18.98 11 20 11 C20.33 11.99 20.66 12.98 21 14 C19.68 14 18.36 14 17 14 C17 13.34 17 12.68 17 12 C15.75863281 12.12375 15.75863281 12.12375 14.4921875 12.25 C9.9523993 11.92500398 7.01773108 10.23303954 3.125 8 C2.43664062 7.6184375 1.74828125 7.236875 1.0390625 6.84375 C-0.64692745 5.90708892 -2.32436814 4.95506752 -4 4 C-2.68 3.34 -1.36 2.68 0 2 C0 1.34 0 0.68 0 0 Z " fill="#31ACC6" transform="translate(136,33)"/>
<path d="M0 0 C-5.43776412 4.5314701 -10.9936624 6.61650458 -17.6796875 8.859375 C-20.26434308 9.74728021 -22.66488401 10.70351619 -25.125 11.875 C-28 13 -28 13 -30.4375 12.6875 C-30.953125 12.460625 -31.46875 12.23375 -32 12 C-31.67 11.34 -31.34 10.68 -31 10 C-29.02 10 -27.04 10 -25 10 C-25 9.01 -25 8.02 -25 7 C-24.01 7 -23.02 7 -22 7 C-22 6.34 -22 5.68 -22 5 C-18.49223216 3.39644899 -15.85645121 2.77963136 -12 3 C-11.67 2.34 -11.34 1.68 -11 1 C-9.68 1.33 -8.36 1.66 -7 2 C-7 1.34 -7 0.68 -7 0 C-3.86650268 -1.04449911 -3.01031744 -0.93423645 0 0 Z " fill="#0A88E3" transform="translate(168,194)"/>
<path d="M0 0 C-0.61757267 4.01422236 -2.53374019 6.82909453 -5 10 C-6.32860925 10.35169068 -7.66158328 10.68770276 -9 11 C-9.71727778 12.64551962 -10.38325228 14.31422289 -11 16 C-11.99 16.66 -12.98 17.32 -14 18 C-13.67 20.97 -13.34 23.94 -13 27 C-13.99 26.67 -14.98 26.34 -16 26 C-17.63151554 22.73696893 -17.68233408 19.51370166 -17 16 C-15.7037393 13.97749552 -14.25745743 12.38264954 -12.58203125 10.6640625 C-10.76301941 8.85815745 -10.76301941 8.85815745 -8.9375 5.75 C-6.64000225 2.48903546 -4.17697213 0 0 0 Z " fill="#39B5C3" transform="translate(97,69)"/>
<path d="M0 0 C1.32 0.33 2.64 0.66 4 1 C3.67 1.66 3.34 2.32 3 3 C2.88252522 4.41882881 2.82314572 5.84271414 2.79467773 7.26611328 C2.77473251 8.14687531 2.75478729 9.02763733 2.73423767 9.93508911 C2.71752518 10.88721283 2.70081268 11.83933655 2.68359375 12.8203125 C2.66281265 13.79410858 2.64203156 14.76790466 2.62062073 15.77120972 C2.55511402 18.88906647 2.49623503 22.00700903 2.4375 25.125 C2.39431585 27.23568604 2.3507016 29.34636333 2.30664062 31.45703125 C2.19943153 36.6379295 2.09766722 41.81891356 2 47 C1.34 47 0.68 47 0 47 C0 31.49 0 15.98 0 0 Z " fill="#A4C7A6" transform="translate(106,163)"/>
<path d="M0 0 C1.2077558 3.62326739 0.54311128 4.64146369 -1 8 C-1.66 8 -2.32 8 -3 8 C-3.33 9.65 -3.66 11.3 -4 13 C-3.34 13 -2.68 13 -2 13 C-2 13.99 -2 14.98 -2 16 C-3.8984375 17.60546875 -3.8984375 17.60546875 -6.375 19.1875 C-7.18710938 19.71730469 -7.99921875 20.24710938 -8.8359375 20.79296875 C-11 22 -11 22 -13 22 C-12.4470225 18.24949454 -11.49770342 15.85472787 -9.27734375 12.79296875 C-8.73916016 12.04208984 -8.20097656 11.29121094 -7.64648438 10.51757812 C-7.08251953 9.74865234 -6.51855469 8.97972656 -5.9375 8.1875 C-5.36966797 7.39923828 -4.80183594 6.61097656 -4.21679688 5.79882812 C-2.81868466 3.86026918 -1.41298918 1.92772776 0 0 Z " fill="#23B0D0" transform="translate(127,137)"/>
<path d="M0 0 C3.53569551 1.96924813 5.92723043 3.7828296 8.0625 7.25 C8.0625 7.91 8.0625 8.57 8.0625 9.25 C7.4025 9.25 6.7425 9.25 6.0625 9.25 C6.0625 8.59 6.0625 7.93 6.0625 7.25 C5.505625 7.146875 4.94875 7.04375 4.375 6.9375 C1.59120742 6.10988599 -0.53601873 4.87262248 -2.9375 3.25 C-3.2675 2.59 -3.5975 1.93 -3.9375 1.25 C-7.06625701 0.12657238 -10.06070238 0.13401779 -13.359375 0.15234375 C-14.38417969 0.15556641 -15.40898438 0.15878906 -16.46484375 0.16210938 C-18.06005859 0.17467773 -18.06005859 0.17467773 -19.6875 0.1875 C-20.76644531 0.19201172 -21.84539062 0.19652344 -22.95703125 0.20117188 C-25.61724383 0.21294273 -28.27734365 0.22938601 -30.9375 0.25 C-22.53878336 -5.34914443 -8.81244948 -4.28742946 0 0 Z " fill="#279DAF" transform="translate(127.9375,68.75)"/>
<path d="M0 0 C3.3 0 6.6 0 10 0 C10 0.66 10 1.32 10 2 C8.1746875 2.0928125 8.1746875 2.0928125 6.3125 2.1875 C3.06586811 2.61923296 1.88454802 3.0786056 -0.9375 5 C-3.64760917 8.94197698 -4.31119342 12.24565613 -4 17 C-2.55733548 20.31812839 -0.67051114 22.58382325 2 25 C-0.475 24.01 -0.475 24.01 -3 23 C-3 22.34 -3 21.68 -3 21 C-3.99 21 -4.98 21 -6 21 C-6.28875 19.88625 -6.5775 18.7725 -6.875 17.625 C-7.69241329 13.99708908 -7.69241329 13.99708908 -10 12 C-10 11.34 -10 10.68 -10 10 C-9.34 9.67 -8.68 9.34 -8 9 C-7.67 8.01 -7.34 7.02 -7 6 C-5.68 6 -4.36 6 -3 6 C-2.67 5.01 -2.34 4.02 -2 3 C-1.34 3 -0.68 3 0 3 C0 2.01 0 1.02 0 0 Z " fill="#1F99C1" transform="translate(132,164)"/>
<path d="M0 0 C3.65316671 1.24976756 4.78065836 1.67098753 7 5 C7.1953125 8.13671875 7.1953125 8.13671875 7.125 11.6875 C7.10695312 12.86699219 7.08890625 14.04648438 7.0703125 15.26171875 C7.04710937 16.16535156 7.02390625 17.06898437 7 18 C3.08885974 17.32599282 0.12880818 15.45743967 -3.25 13.4375 C-4.86648437 12.47650391 -4.86648437 12.47650391 -6.515625 11.49609375 C-7.33546875 11.00238281 -8.1553125 10.50867187 -9 10 C-5.0706531 8.83158187 -2.03683933 9.32719344 2 10 C2.66 10 3.32 10 4 10 C3.67 7.69 3.34 5.38 3 3 C2.01 2.67 1.02 2.34 0 2 C0 1.34 0 0.68 0 0 Z " fill="#278BAC" transform="translate(133,53)"/>
<path d="M0 0 C6.39667043 5.33665076 7.2727518 16.08073469 8.25 23.9375 C8.56799426 30.21950906 8.56799426 30.21950906 6.33984375 33.28125 C3.6722312 35.33400449 1.43734155 37 -2 37 C-2 36.01 -2 35.02 -2 34 C0.62596061 32.15473038 2.95127546 31.01624151 6 30 C5.6151939 22.94522146 3.84473787 16.64060671 1.7277832 9.94165039 C0.63476482 6.43210832 0 3.71197076 0 0 Z " fill="#2369A4" transform="translate(170,156)"/>
<path d="M0 0 C0.66 0 1.32 0 2 0 C2.01458252 0.71953857 2.02916504 1.43907715 2.04418945 2.18041992 C2.36143065 20.81538573 2.36143065 20.81538573 6 39 C6.3496867 40.66331239 6.68803758 42.32920129 7 44 C-2.91071532 31.76069254 -0.41145617 14.7285483 0 0 Z " fill="#746A61" transform="translate(35,114)"/>
<path d="M0 0 C1.98 0 3.96 0 6 0 C6 0.99 6 1.98 6 3 C6.66 3 7.32 3 8 3 C8 3.66 8 4.32 8 5 C8.57234375 5.14308594 9.1446875 5.28617188 9.734375 5.43359375 C10.48203125 5.62050781 11.2296875 5.80742187 12 6 C12.70640625 6.17660156 13.4128125 6.35320312 14.140625 6.53515625 C16.09375 7.0234375 18.046875 7.51171875 20 8 C20 8.66 20 9.32 20 10 C20.66 10 21.32 10 22 10 C22 10.66 22 11.32 22 12 C24.64 12 27.28 12 30 12 C30.66 13.32 31.32 14.64 32 16 C19.95274127 14.29921053 9.73713846 7.97156067 0 1 C0 0.67 0 0.34 0 0 Z " fill="#39BEC4" transform="translate(50,190)"/>
<path d="M0 0 C0.99 0.103125 1.98 0.20625 3 0.3125 C5 3.3125 5 3.3125 4.75 5.875 C4 8.3125 4 8.3125 2 10.3125 C-1.29714793 9.98278521 -2.6226839 9.6898161 -5 7.3125 C-5.25 4.8125 -5.25 4.8125 -5 2.3125 C-3 0.3125 -3 0.3125 0 0 Z " fill="#60523A" transform="translate(139,172.6875)"/>
<path d="M0 0 C5.18035557 2.22015239 8.33380139 4.81005873 12 9 C12 9.99 12 10.98 12 12 C5.97229862 11.52412884 1.23321711 8.80277043 -4 6 C-2.68 5.67 -1.36 5.34 0 5 C0 3.35 0 1.7 0 0 Z " fill="#2DBAD8" transform="translate(66,52)"/>
<path d="M0 0 C4.875 1.875 4.875 1.875 6 3 C6.09311889 4.50418739 6.11746028 6.01271356 6.11352539 7.51977539 C6.11344986 8.48069595 6.11337433 9.44161652 6.11329651 10.43165588 C6.10813522 11.476436 6.10297394 12.52121613 6.09765625 13.59765625 C6.0962413 14.66165146 6.09482635 15.72564667 6.09336853 16.82188416 C6.08775064 20.23545083 6.07519511 23.648953 6.0625 27.0625 C6.05748731 29.37044176 6.052924 31.67838455 6.04882812 33.98632812 C6.0377754 39.65757426 6.02101987 45.32878253 6 51 C4.08364783 51.05423638 2.16685075 51.09289963 0.25 51.125 C-0.81734375 51.14820313 -1.8846875 51.17140625 -2.984375 51.1953125 C-5.92470106 51.00487687 -7.52361878 50.52670104 -10 49 C-4.70518291 48.90710847 -0.35789122 49.23458697 5 50 C5 34.82 5 19.64 5 4 C3.68 3.67 2.36 3.34 1 3 C0.67 2.01 0.34 1.02 0 0 Z " fill="#3CADB8" transform="translate(100,159)"/>
<path d="M0 0 C0 1.98 0 3.96 0 6 C-0.99 6.33 -1.98 6.66 -3 7 C-3.99 11.95 -4.98 16.9 -6 22 C-6.66 22 -7.32 22 -8 22 C-7.91253716 23.43861294 -7.80434652 24.87597508 -7.6875 26.3125 C-7.62949219 27.11300781 -7.57148437 27.91351563 -7.51171875 28.73828125 C-6.91793306 31.36272334 -6.04219706 32.30820672 -4 34 C-7 34 -7 34 -8.6875 32.859375 C-11.6192868 28.70601037 -9.80995745 22.71336687 -9 18 C-4.53253012 0 -4.53253012 0 0 0 Z " fill="#42B4BB" transform="translate(54,155)"/>
<path d="M0 0 C0.33 0 0.66 0 1 0 C1 4.95 1 9.9 1 15 C2.36125 13.906875 3.7225 12.81375 5.125 11.6875 C8.60108889 8.99721456 11.844679 6.54616595 16 5 C18.375 5.3125 18.375 5.3125 20 6 C19.030625 6.28875 18.06125 6.5775 17.0625 6.875 C13.89335797 7.64214682 13.89335797 7.64214682 13 10 C13.99 10.33 14.98 10.66 16 11 C14.96939453 11.48919922 14.96939453 11.48919922 13.91796875 11.98828125 C12.56638672 12.64376953 12.56638672 12.64376953 11.1875 13.3125 C10.29417969 13.74175781 9.40085937 14.17101562 8.48046875 14.61328125 C6.21068067 15.88221789 4.70751829 17.06556898 3 19 C3 18.01 3 17.02 3 16 C2.01 16 1.02 16 0 16 C0 10.72 0 5.44 0 0 Z " fill="#082A2E" transform="translate(84,57)"/>
<path d="M0 0 C0 0.99 0 1.98 0 3 C-0.495 2.01 -0.495 2.01 -1 1 C-3.32375692 0.60539977 -5.6593935 0.27769908 -8 0 C-8.59941406 -0.16757812 -9.19882813 -0.33515625 -9.81640625 -0.5078125 C-19.10106465 -2.60059776 -27.61875459 -1.10815964 -36 3 C-37.66211425 3.6779369 -39.32771845 4.34754569 -41 5 C-41.33 4.01 -41.66 3.02 -42 2 C-40.79731319 1.34371151 -39.58747446 0.70052495 -38.375 0.0625 C-37.70210938 -0.29714844 -37.02921875 -0.65679687 -36.3359375 -1.02734375 C-25.9114906 -5.36795793 -10.20745386 -4.30867399 0 0 Z " fill="#2CAEBD" transform="translate(132,51)"/>
<path d="M0 0 C11.81175281 5.40624695 18.95860182 19.93661553 25.19921875 30.66015625 C26 33 26 33 25.14453125 35.30859375 C24.76683594 35.86675781 24.38914063 36.42492187 24 37 C23.649375 35.741875 23.29875 34.48375 22.9375 33.1875 C19.01007447 21.53309307 10.62598905 12.41774293 1.9375 4 C0 2 0 2 0 0 Z " fill="#82756C" transform="translate(165,61)"/>
<path d="M0 0 C0.66 0.33 1.32 0.66 2 1 C0.02 1.99 0.02 1.99 -2 3 C-2 3.66 -2 4.32 -2 5 C-3.13438145 6.16875665 -4.27558486 7.33146358 -5.4453125 8.46484375 C-13.5281754 16.44616315 -19.39917555 25.19752665 -23 36 C-23.66 36 -24.32 36 -25 36 C-22.93042933 22.72620191 -11.82594387 9.62653288 -2 1 C-1.34 0.67 -0.68 0.34 0 0 Z " fill="#7B6C61" transform="translate(60,62)"/>
<path d="M0 0 C0.61875 0.78375 1.2375 1.5675 1.875 2.375 C3.89858661 4.96837647 3.89858661 4.96837647 6 7 C8.60280568 6.67958603 8.60280568 6.67958603 11 6 C11.66 4.02 12.32 2.04 13 0 C13.66 0 14.32 0 15 0 C15.3125 3.25 15.3125 3.25 15 7 C12.40973731 9.97118368 10.83940315 10.88008526 6.9375 11.4375 C3.55726577 10.93406086 2.16777885 10.66803551 0 8 C-0.33686831 5.24528656 -0.18319242 2.7936844 0 0 Z " fill="#BC9D6B" transform="translate(131,175)"/>
<path d="M0 0 C0.33 0 0.66 0 1 0 C1.03440186 0.67877197 1.06880371 1.35754395 1.10424805 2.05688477 C1.77733707 14.38641462 2.45665209 25.86493072 7.07421875 37.40234375 C7.37972656 38.25957031 7.68523438 39.11679688 8 40 C7 42 7 42 5 43 C4.35220924 40.60468067 3.70670991 38.20878252 3.0625 35.8125 C2.88009766 35.13896484 2.69769531 34.46542969 2.50976562 33.77148438 C1.02365372 28.23233998 -0.12976156 23.2273201 -0.09765625 17.48046875 C-0.09443359 16.45888672 -0.09121094 15.43730469 -0.08789062 14.38476562 C-0.07951172 13.32966797 -0.07113281 12.27457031 -0.0625 11.1875 C-0.05798828 10.11306641 -0.05347656 9.03863281 -0.04882812 7.93164062 C-0.03707729 5.28770317 -0.02064787 2.64388048 0 0 Z " fill="#21150E" transform="translate(33,116)"/>
<path d="M0 0 C1.65 0.33 3.3 0.66 5 1 C4.67 2.65 4.34 4.3 4 6 C3.01 6 2.02 6 1 6 C0.67 7.65 0.34 9.3 0 11 C-1.65 10.67 -3.3 10.34 -5 10 C-5.38063221 7.6739143 -5.71269945 5.33944736 -6 3 C-5 2 -5 2 -1.9375 1.9375 C-0.4834375 1.9684375 -0.4834375 1.9684375 1 2 C0.67 1.34 0.34 0.68 0 0 Z " fill="#160A05" transform="translate(35,98)"/>
<path d="M0 0 C0.33 6.6 0.66 13.2 1 20 C-0.65 20.33 -2.3 20.66 -4 21 C-3.67 14.4 -3.34 7.8 -3 1 C-1 0 -1 0 0 0 Z " fill="#C6B181" transform="translate(149,65)"/>
<path d="M0 0 C0.66 0.33 1.32 0.66 2 1 C1.505 1.515625 1.01 2.03125 0.5 2.5625 C-1.49649241 5.80680017 -1.21564385 8.26217334 -1 12 C-0.01 12.33 0.98 12.66 2 13 C1.67 12.01 1.34 11.02 1 10 C2.98 10 4.96 10 7 10 C7 9.34 7 8.68 7 8 C11.455 7.505 11.455 7.505 16 7 C14.02 7.99 14.02 7.99 12 9 C7.05703054 11.55850884 2.82051197 13.87384707 -1 18 C-1.66 18 -2.32 18 -3 18 C-3.0809723 15.56183415 -3.14046972 13.12635616 -3.1875 10.6875 C-3.21263672 9.99720703 -3.23777344 9.30691406 -3.26367188 8.59570312 C-3.33834499 3.44325817 -3.33834499 3.44325817 -1.48828125 1.01953125 C-0.99714844 0.68308594 -0.50601563 0.34664062 0 0 Z " fill="#39BECF" transform="translate(88,54)"/>
<path d="M0 0 C3.96 1.98 7.92 3.96 12 6 C10.68 6.33 9.36 6.66 8 7 C8.99 7.99 9.98 8.98 11 10 C10.67 10.66 10.34 11.32 10 12 C5.38 9.03 0.76 6.06 -4 3 C-2.68 2.67 -1.36 2.34 0 2 C0 1.34 0 0.68 0 0 Z " fill="#03191D" transform="translate(85,144)"/>
<path d="M0 0 C4.55555556 0.55555556 4.55555556 0.55555556 6 2 C6.125 5 6.125 5 6 8 C5 9 5 9 2.5625 9.1875 C0 9 0 9 -2 7 C-2.25 4.5 -2.25 4.5 -2 2 C-1.34 1.34 -0.68 0.68 0 0 Z " fill="#593E2A" transform="translate(190,100)"/>
<path d="M0 0 C0.66 0 1.32 0 2 0 C2 0.66 2 1.32 2 2 C2.69867188 2.13277344 3.39734375 2.26554687 4.1171875 2.40234375 C5.02726562 2.57894531 5.93734375 2.75554688 6.875 2.9375 C7.77992188 3.11152344 8.68484375 3.28554688 9.6171875 3.46484375 C12 4 12 4 14 5 C14.625 7.5625 14.625 7.5625 15 10 C9.29290936 9.53411505 5.84060277 8.06242216 1 5 C1 4.01 1 3.02 1 2 C0.34 1.67 -0.32 1.34 -1 1 C-0.67 0.67 -0.34 0.34 0 0 Z " fill="#2EB8D4" transform="translate(122,27)"/>
<path d="M0 0 C1.65 0.33 3.3 0.66 5 1 C4.67 1.99 4.34 2.98 4 4 C5.32 4.33 6.64 4.66 8 5 C4.25 8 4.25 8 2 8 C2 8.66 2 9.32 2 10 C0.35 10 -1.3 10 -3 10 C-3 8.68 -3 7.36 -3 6 C-2.01 6 -1.02 6 0 6 C0 4.02 0 2.04 0 0 Z " fill="#11B7E1" transform="translate(158,47)"/>
<path d="M0 0 C3.33773709 3.64116773 3.97864902 7.28607242 5 12 C5.66 12 6.32 12 7 12 C7.5259375 13.299375 7.5259375 13.299375 8.0625 14.625 C10.15808687 18.27537713 12.28964156 20.17338853 15.57421875 22.703125 C16.04472656 23.13109375 16.51523438 23.5590625 17 24 C17 24.66 17 25.32 17 26 C9.95156754 23.75675976 6.12308031 17.76122305 2.59765625 11.515625 C0.76713472 7.63309536 -0.56475461 4.37684823 0 0 Z " fill="#33B1C1" transform="translate(86,100)"/>
<path d="M0 0 C2 3 2 3 1.5 6.875 C-0.0857055 13.27067883 -3.10594807 19.11178743 -6 25 C-6.99 24.34 -7.98 23.68 -9 23 C-8.68546875 22.42894531 -8.3709375 21.85789063 -8.046875 21.26953125 C-4.4266311 14.41069566 -2.09178228 7.45562622 0 0 Z " fill="#291910" transform="translate(189,145)"/>
<path d="M0 0 C1.77178053 0.956581 3.54239076 1.91532988 5.3125 2.875 C6.79169922 3.67550781 6.79169922 3.67550781 8.30078125 4.4921875 C13.78444698 7.5554219 13.78444698 7.5554219 15 10.0625 C15.89698316 12.35342991 15.89698316 12.35342991 19 13 C19 16.96 19 20.92 19 25 C18.67 25 18.34 25 18 25 C17.98582031 24.31292969 17.97164062 23.62585938 17.95703125 22.91796875 C17.81288704 20.19481199 17.60606939 17.6606876 17 15 C14.6450037 12.91783124 14.6450037 12.91783124 12 12 C11.67 11.34 11.34 10.68 11 10 C8.98330173 8.86649466 8.98330173 8.86649466 7 8 C7 7.34 7 6.68 7 6 C6.34 6 5.68 6 5 6 C5 5.34 5 4.68 5 4 C4.01 4 3.02 4 2 4 C2 3.34 2 2.68 2 2 C1.34 2 0.68 2 0 2 C0 1.34 0 0.68 0 0 Z " fill="#35C7D2" transform="translate(86,150)"/>
<path d="M0 0 C-0.33 0.99 -0.66 1.98 -1 3 C-1.66 3 -2.32 3 -3 3 C-3 3.99 -3 4.98 -3 6 C-3.99 6 -4.98 6 -6 6 C-6 6.99 -6 7.98 -6 9 C-7.98 9.33 -9.96 9.66 -12 10 C-11.625 7.5625 -11.625 7.5625 -11 5 C-10.34 4.67 -9.68 4.34 -9 4 C-8.67 3.01 -8.34 2.02 -8 1 C-5.23735711 0.40267181 -2.83967231 0 0 0 Z " fill="#06BAE6" transform="translate(135,140)"/>
<path d="M0 0 C0.33 0 0.66 0 1 0 C1 1.98 1 3.96 1 6 C2.32 5.67 3.64 5.34 5 5 C5.33 3.35 5.66 1.7 6 0 C6.33 0 6.66 0 7 0 C7 8.91 7 17.82 7 27 C6.67 27 6.34 27 6 27 C5.11978631 20.28837062 4.88618045 13.76594019 5 7 C4.34 7 3.68 7 3 7 C3 9.97 3 12.94 3 16 C2.67 16 2.34 16 2 16 C1.8046875 13.98177083 1.609375 11.96354167 1.4140625 9.9453125 C1.13625251 7.77331755 1.13625251 7.77331755 -1 6 C-0.625 2.875 -0.625 2.875 0 0 Z " fill="#382916" transform="translate(144,80)"/>
<path d="M0 0 C6.99444555 6.17156961 11.30608723 13.85287105 13 23 C12.34 23 11.68 23 11 23 C10.45730469 21.89140625 9.91460937 20.7828125 9.35546875 19.640625 C8.63302726 18.17697731 7.91035908 16.7134415 7.1875 15.25 C6.83107422 14.52039063 6.47464844 13.79078125 6.10742188 13.0390625 C4.63305721 10.06328062 3.24728005 7.3267825 1.23828125 4.671875 C0 3 0 3 0 0 Z " fill="#2A190D" transform="translate(177,76)"/>
<path d="M0 0 C0.5775 0.7425 1.155 1.485 1.75 2.25 C3.86462626 4.99659059 3.86462626 4.99659059 6.25 6.9375 C8 9 8 9 8.4375 12.0625 C7.96865123 15.2104846 7.49619254 16.12785559 5 18 C4.34 17.67 3.68 17.34 3 17 C3.33 16.01 3.66 15.02 4 14 C4.66 14 5.32 14 6 14 C6 12.35 6 10.7 6 9 C4.02 9 2.04 9 0 9 C-0.33 8.01 -0.66 7.02 -1 6 C-0.67 5.34 -0.34 4.68 0 4 C0 2.68 0 1.36 0 0 Z " fill="#2784B2" transform="translate(136,78)"/>
<path d="M0 0 C5.1182341 2.13259754 10.0577081 4.48550061 15 7 C11.28272326 8.13583456 9.52948291 7.66670026 6 6 C6 5.34 6 4.68 6 4 C5.01 4.495 5.01 4.495 4 5 C4.33 5.99 4.66 6.98 5 8 C1.22454612 6.90931332 -1.47043472 6.0916909 -4 3 C-2.68 3 -1.36 3 0 3 C0 2.01 0 1.02 0 0 Z " fill="#32B3C4" transform="translate(118,23)"/>
<path d="M0 0 C8.84449499 0.29420358 16.66459423 3.6910922 24.0625 8.3125 C24.0625 8.6425 24.0625 8.9725 24.0625 9.3125 C19.80011788 9.66769851 18.37779123 8.8477227 15.0625 6.3125 C12.74402126 5.5958793 10.40930297 4.93007973 8.0625 4.3125 C7.258125 3.94125 6.45375 3.57 5.625 3.1875 C2.01004803 1.95312616 -1.12722871 2.18333826 -4.9375 2.3125 C-2.9375 0.3125 -2.9375 0.3125 0 0 Z " fill="#298AB9" transform="translate(145.9375,146.6875)"/>
<path d="M0 0 C2.97 0.495 2.97 0.495 6 1 C5.01 1.495 5.01 1.495 4 2 C4 7.94 4 13.88 4 20 C3.67 20 3.34 20 3 20 C2.67 14.72 2.34 9.44 2 4 C1.34 6.97 0.68 9.94 0 13 C-0.66 13 -1.32 13 -2 13 C-1.85915204 11.20793453 -1.71216299 9.41635083 -1.5625 7.625 C-1.48128906 6.62726563 -1.40007813 5.62953125 -1.31640625 4.6015625 C-1 2 -1 2 0 0 Z " fill="#3E2E22" transform="translate(31,112)"/>
<path d="M0 0 C-0.66 1.32 -1.32 2.64 -2 4 C-3.32 4 -4.64 4 -6 4 C-6.33 4.99 -6.66 5.98 -7 7 C-9.27208411 8.51472274 -11.56019185 9.78009593 -14 11 C-14.99 10.67 -15.98 10.34 -17 10 C-17 10.66 -17 11.32 -17 12 C-20.3 12.66 -23.6 13.32 -27 14 C-26 12 -26 12 -23.19140625 10.95703125 C-21.99386719 10.57933594 -20.79632813 10.20164063 -19.5625 9.8125 C-13.59297184 7.83974076 -8.89319349 5.23991349 -3.890625 1.35546875 C-2 0 -2 0 0 0 Z " fill="#03172C" transform="translate(173,191)"/>
<path d="M0 0 C0.33 0 0.66 0 1 0 C4.31850244 11.40735214 4.31850244 11.40735214 3 17 C0 19.5625 0 19.5625 -3 21 C-2.649375 20.38125 -2.29875 19.7625 -1.9375 19.125 C-1.628125 18.42375 -1.31875 17.7225 -1 17 C-1.33 16.34 -1.66 15.68 -2 15 C-1.34 14.67 -0.68 14.34 0 14 C0 12.02 0 10.04 0 8 C-0.99 7.67 -1.98 7.34 -3 7 C-2.01 4.69 -1.02 2.38 0 0 Z " fill="#0784E2" transform="translate(173,169)"/>
<path d="M0 0 C0.66 0.33 1.32 0.66 2 1 C2.4140625 3.50390625 2.4140625 3.50390625 2.625 6.5625 C2.69976562 7.57441406 2.77453125 8.58632812 2.8515625 9.62890625 C2.90054688 10.41136719 2.94953125 11.19382812 3 12 C1.02 12 -0.96 12 -3 12 C-3 9.69 -3 7.38 -3 5 C-2.01 5 -1.02 5 0 5 C0 3.35 0 1.7 0 0 Z " fill="#D7BB80" transform="translate(149,106)"/>
<path d="M0 0 C-0.61757267 4.01422236 -2.53374019 6.82909453 -5 10 C-7.25 10.875 -7.25 10.875 -9 11 C-8.875 7.75 -8.875 7.75 -8 4 C-3.17948718 0 -3.17948718 0 0 0 Z " fill="#1FD1EC" transform="translate(97,69)"/>
<path d="M0 0 C-5.47846554 4.38277243 -11.14216736 7.31830219 -18 9 C-18.99 8.67 -19.98 8.34 -21 8 C-17.27034861 5.96564469 -15.33094958 5 -11 5 C-11 4.01 -11 3.02 -11 2 C-9.68 2 -8.36 2 -7 2 C-7 1.34 -7 0.68 -7 0 C-3.86650268 -1.04449911 -3.01031744 -0.93423645 0 0 Z " fill="#1A6EB4" transform="translate(168,194)"/>
<path d="M0 0 C1.6396875 0.2475 1.6396875 0.2475 3.3125 0.5 C6.87525873 1.06718184 6.87525873 1.06718184 10 1 C14 6.25714286 14 6.25714286 14 9 C10.26234143 8.37123501 7.80966403 6.6829182 4.75 4.5 C3.85796875 3.8709375 2.9659375 3.241875 2.046875 2.59375 C1.37140625 2.0678125 0.6959375 1.541875 0 1 C0 0.67 0 0.34 0 0 Z " fill="#80A29C" transform="translate(97,150)"/>
<path d="M0 0 C2 2 2 2 2.5 5.6875 C2.41718968 10.21722437 0.49979509 12.51229903 -2.4921875 15.75 C-4 17 -4 17 -6 17 C-6.33 16.01 -6.66 15.02 -7 14 C-5.37660195 12.29115995 -3.70680947 10.62553283 -2 9 C-1.34 9 -0.68 9 0 9 C0 6.03 0 3.06 0 0 Z " fill="#181B1C" transform="translate(148,171)"/>
<path d="M0 0 C1.2077558 3.62326739 0.54311128 4.64146369 -1 8 C-1.66 8 -2.32 8 -3 8 C-3.0825 8.598125 -3.165 9.19625 -3.25 9.8125 C-4.20455872 12.5966296 -5.57132271 13.43311142 -8 15 C-8.66 14.67 -9.32 14.34 -10 14 C-6.7 9.38 -3.4 4.76 0 0 Z " fill="#32A9C5" transform="translate(127,137)"/>
<path d="M0 0 C0.33 0 0.66 0 1 0 C1.125 2.875 1.125 2.875 1 6 C-1.5654594 8.5654594 -3.47686668 8.54046087 -7 9 C-7.33 10.32 -7.66 11.64 -8 13 C-8.12117187 12.43410156 -8.24234375 11.86820313 -8.3671875 11.28515625 C-8.61855469 10.18494141 -8.61855469 10.18494141 -8.875 9.0625 C-9.03742188 8.33160156 -9.19984375 7.60070312 -9.3671875 6.84765625 C-9.82961523 4.79299706 -9.82961523 4.79299706 -12 4 C-11.34 4 -10.68 4 -10 4 C-9.67 3.34 -9.34 2.68 -9 2 C-8.01 3.485 -8.01 3.485 -7 5 C-4.41619823 5.25030977 -4.41619823 5.25030977 -2 5 C-1.34 3.35 -0.68 1.7 0 0 Z " fill="#B89D76" transform="translate(197,103)"/>
<path d="M0 0 C1.32 0.33 2.64 0.66 4 1 C4.99 1 5.98 1 7 1 C6.67 2.98 6.34 4.96 6 7 C6.99 7 7.98 7 9 7 C8.625 9.4375 8.625 9.4375 8 12 C7.01 12.495 7.01 12.495 6 13 C4.02 8.71 2.04 4.42 0 0 Z " fill="#21D1E7" transform="translate(83,94)"/>
<path d="M0 0 C0.33 0 0.66 0 1 0 C1.42004622 6.09067026 1.0566405 9.10816881 -3 14 C-5.64458379 15.32229189 -7.67761301 15.09677194 -10.625 15.0625 C-11.62789062 15.05347656 -12.63078125 15.04445312 -13.6640625 15.03515625 C-14.43492187 15.02355469 -15.20578125 15.01195312 -16 15 C-16 14.67 -16 14.34 -16 14 C-15.33613281 13.92523438 -14.67226562 13.85046875 -13.98828125 13.7734375 C-7.78878013 12.90523871 -7.78878013 12.90523871 -2.9375 9.25 C-0.99860411 5.99765851 -0.26774582 3.74844148 0 0 Z " fill="#2589BA" transform="translate(150,175)"/>
<path d="M0 0 C0.33 0 0.66 0 1 0 C1 3.63 1 7.26 1 11 C1.66 11 2.32 11 3 11 C4.02611949 12.65071396 5.02308143 14.31970006 6 16 C7.58245275 17.75149165 7.58245275 17.75149165 9 19 C6.525 18.01 6.525 18.01 4 17 C4 16.34 4 15.68 4 15 C3.01 15 2.02 15 1 15 C0.71125 13.88625 0.4225 12.7725 0.125 11.625 C-0.69241329 7.99708908 -0.69241329 7.99708908 -3 6 C-3 5.34 -3 4.68 -3 4 C-2.34 3.67 -1.68 3.34 -1 3 C-0.67 2.01 -0.34 1.02 0 0 Z " fill="#189DC9" transform="translate(125,170)"/>
<path d="M0 0 C4.79022833 0.4354753 8.62460714 2.63368078 12 6 C12.703125 8.16796875 12.703125 8.16796875 13 10 C12.34 10 11.68 10 11 10 C11 9.34 11 8.68 11 8 C10.443125 7.896875 9.88625 7.79375 9.3125 7.6875 C5.56616173 6.57372376 2.73266041 5.22110068 0.6875 1.8125 C0.460625 1.214375 0.23375 0.61625 0 0 Z " fill="#20A2C2" transform="translate(123,68)"/>
<path d="M0 0 C-0.33 0.66 -0.66 1.32 -1 2 C-1.66 2 -2.32 2 -3 2 C-3 3.32 -3 4.64 -3 6 C-3.99 6.33 -4.98 6.66 -6 7 C-6.33 6.34 -6.66 5.68 -7 5 C-7.99 5 -8.98 5 -10 5 C-9.8125 3.125 -9.8125 3.125 -9 1 C-5.6868424 -0.8804408 -3.58825658 -1.32898392 0 0 Z " fill="#35C8D4" transform="translate(64,152)"/>
<path d="M0 0 C0.33 0 0.66 0 1 0 C1 2.97 1 5.94 1 9 C-5.11774896 9.49940808 -8.02495953 8.24900602 -13 5 C-9.17498723 3.6229954 -5.93867692 4.34355385 -2 5 C-1.34 5 -0.68 5 0 5 C0 3.35 0 1.7 0 0 Z " fill="#19A5CD" transform="translate(137,58)"/>
<path d="M0 0 C8.58 0.99 17.16 1.98 26 3 C26 3.33 26 3.66 26 4 C23.60472566 4.22295635 21.20998659 4.42874063 18.8125 4.625 C17.80219727 4.72167969 17.80219727 4.72167969 16.77148438 4.8203125 C12.59204043 5.146513 9.75381787 4.8504736 6 3 C4.00379834 2.32204472 2.00461299 1.65266469 0 1 C0 0.67 0 0.34 0 0 Z " fill="#10292F" transform="translate(87,208)"/>
<path d="M0 0 C0.99 0.33 1.98 0.66 3 1 C2 3 2 3 0.265625 3.7734375 C-2.86799304 5.46991347 -4.93790589 7.9768457 -7.25 10.625 C-7.70890625 11.140625 -8.1678125 11.65625 -8.640625 12.1875 C-9.76592296 13.4534602 -10.88372177 14.72607942 -12 16 C-12.33 15.01 -12.66 14.02 -13 13 C-11.71520959 11.49410612 -10.42195918 9.99542625 -9.125 8.5 C-8.04605469 7.24703125 -8.04605469 7.24703125 -6.9453125 5.96875 C-6.30335937 5.3190625 -5.66140625 4.669375 -5 4 C-4.34 4 -3.68 4 -3 4 C-3 3.34 -3 2.68 -3 2 C-2.01 1.34 -1.02 0.68 0 0 Z " fill="#322215" transform="translate(61,63)"/>
<path d="M0 0 C3.72644642 2.71014285 4.25556951 6.7123667 5 11 C5.41660255 14.32808629 5.7396264 17.65625485 6 21 C3.5780468 18.5780468 3.25578797 16.43106484 2.5078125 13.16015625 C2.0400908 11.17054011 1.4622969 9.20765633 0.875 7.25 C0 4 0 4 0 0 Z " fill="#2280BC" transform="translate(170,156)"/>
<path d="M0 0 C4.875 1.875 4.875 1.875 6 3 C6.08748207 4.92667507 6.10697334 6.85651861 6.09765625 8.78515625 C6.09443359 9.95498047 6.09121094 11.12480469 6.08789062 12.33007812 C6.07951172 13.56177734 6.07113281 14.79347656 6.0625 16.0625 C6.05798828 17.29806641 6.05347656 18.53363281 6.04882812 19.80664062 C6.03699608 22.87114117 6.02051173 25.93554721 6 29 C5.67 29 5.34 29 5 29 C5 20.75 5 12.5 5 4 C3.68 3.67 2.36 3.34 1 3 C0.67 2.01 0.34 1.02 0 0 Z " fill="#45B9BD" transform="translate(100,159)"/>
<path d="M0 0 C3.465 1.485 3.465 1.485 7 3 C7 3.66 7 4.32 7 5 C7.66 5 8.32 5 9 5 C8.67 5.66 8.34 6.32 8 7 C6.02 6.34 4.04 5.68 2 5 C2 4.34 2 3.68 2 3 C1.30132812 3.02320313 0.60265625 3.04640625 -0.1171875 3.0703125 C-1.02726563 3.08835938 -1.93734375 3.10640625 -2.875 3.125 C-3.77992188 3.14820313 -4.68484375 3.17140625 -5.6171875 3.1953125 C-8 3 -8 3 -10 1 C-6.7 1.33 -3.4 1.66 0 2 C0 1.34 0 0.68 0 0 Z M-11 3 C-8 4 -8 4 -8 4 Z " fill="#0BA6E0" transform="translate(140,161)"/>
<path d="M0 0 C2.60895459 2.60895459 3.10973264 4.98266538 4.1875 8.5 C4.55230469 9.6653125 4.91710938 10.830625 5.29296875 12.03125 C6 15 6 15 5 17 C4.34 17 3.68 17 3 17 C0.70657253 11.10261508 -0.34548714 6.33393082 0 0 Z " fill="#251812" transform="translate(32,145)"/>
<path d="M0 0 C5.75 0.875 5.75 0.875 8 2 C8 2.66 8 3.32 8 4 C9.32 4.33 10.64 4.66 12 5 C11.67 5.33 11.34 5.66 11 6 C6.92720311 5.61577388 3.53425882 5.12055529 0 3 C0 2.01 0 1.02 0 0 Z " fill="#29B8D8" transform="translate(138,37)"/>
<path d="M0 0 C0.99 0.66 1.98 1.32 3 2 C1.95779297 2.55107422 1.95779297 2.55107422 0.89453125 3.11328125 C-2.64934279 5.42325583 -5.37960564 8.16195041 -8.3125 11.1875 C-8.86228516 11.74630859 -9.41207031 12.30511719 -9.97851562 12.88085938 C-11.32363696 14.24937412 -12.66246643 15.62406833 -14 17 C-14.33 16.01 -14.66 15.02 -15 14 C-14.33613281 13.40832031 -13.67226562 12.81664063 -12.98828125 12.20703125 C-8.55061038 8.2358017 -4.14213205 4.28020312 0 0 Z " fill="#867B71" transform="translate(184,107)"/>
<path d="M0 0 C4.37909262 3.02293764 6.62183483 6.34554769 8.875 11.0625 C9.1946875 11.68705078 9.514375 12.31160156 9.84375 12.95507812 C12.12958904 17.61123287 12.12958904 17.61123287 11 21 C10.62488281 20.21496094 10.24976563 19.42992188 9.86328125 18.62109375 C6.41697234 11.49950768 6.41697234 11.49950768 2.125 4.875 C0 2 0 2 0 0 Z " fill="#928276" transform="translate(175,77)"/>
<path d="M0 0 C0 0.66 0 1.32 0 2 C-2.64738916 3.4606285 -3.89448334 4 -7 4 C-7 4.99 -7 5.98 -7 7 C-5.02 7.66 -3.04 8.32 -1 9 C-1 9.66 -1 10.32 -1 11 C-4.0831351 9.80100302 -7.06279492 8.52299523 -10 7 C-8.89184175 3.78634109 -8.01470446 3.0085776 -5 1.25 C-2 0 -2 0 0 0 Z " fill="#3EACBA" transform="translate(63,46)"/>
<path d="M0 0 C0.66 0.33 1.32 0.66 2 1 C-1.15557744 5.67025461 -3.8641579 7.12344231 -9 9 C-9.33 8.01 -9.66 7.02 -10 6 C-8.3811004 4.96951963 -6.75467511 3.95085322 -5.125 2.9375 C-4.22007812 2.36902344 -3.31515625 1.80054688 -2.3828125 1.21484375 C-1.20332031 0.61349609 -1.20332031 0.61349609 0 0 Z " fill="#1E95BD" transform="translate(139,149)"/>
<path d="M0 0 C0 0.99 0 1.98 0 3 C-2.31 3.33 -4.62 3.66 -7 4 C-7.33 4.99 -7.66 5.98 -8 7 C-11.0625 8.1875 -11.0625 8.1875 -14 9 C-12.74397824 5.23193471 -11.48987433 4.78753493 -8.125 2.8125 C-7.24070312 2.28269531 -6.35640625 1.75289062 -5.4453125 1.20703125 C-3 0 -3 0 0 0 Z " fill="#3AA2BF" transform="translate(130,156)"/>
<path d="M0 0 C0.33 0 0.66 0 1 0 C1 2.97 1 5.94 1 9 C0.01 9.33 -0.98 9.66 -2 10 C-2.33 11.65 -2.66 13.3 -3 15 C-4.32 15.33 -5.64 15.66 -7 16 C-6.57847656 15.18015625 -6.15695313 14.3603125 -5.72265625 13.515625 C-4.90087891 11.89914063 -4.90087891 11.89914063 -4.0625 10.25 C-3.51722656 9.18265625 -2.97195312 8.1153125 -2.41015625 7.015625 C-1.28783725 4.61554115 -0.49498341 2.58143248 0 0 Z " fill="#052132" transform="translate(136,103)"/>
<path d="M0 0 C0 0.66 0 1.32 0 2 C1.98 2 3.96 2 6 2 C3.01353231 3.99097846 0.40312738 4.94124926 -3 6 C-3.33 5.34 -3.66 4.68 -4 4 C-6.02463255 3.34786708 -6.02463255 3.34786708 -8 3 C-2.25 0 -2.25 0 0 0 Z " fill="#32B5C8" transform="translate(108,23)"/>
<path d="M0 0 C3.7602985 0.58107632 6.53035032 1.65199496 9.8125 3.5625 C10.60269531 4.01753906 11.39289063 4.47257813 12.20703125 4.94140625 C12.79871094 5.29074219 13.39039063 5.64007813 14 6 C14 6.66 14 7.32 14 8 C12.68 8.33 11.36 8.66 10 9 C9.773125 8.38125 9.54625 7.7625 9.3125 7.125 C7.62070165 4.38589791 6.00755839 3.94975528 3 3 C3 2.34 3 1.68 3 1 C2.01 1.33 1.02 1.66 0 2 C0 1.34 0 0.68 0 0 Z " fill="#3597B4" transform="translate(128,135)"/>
<path d="M0 0 C1.95918968 0.05991406 3.91751529 0.14867138 5.875 0.25 C6.96554688 0.29640625 8.05609375 0.3428125 9.1796875 0.390625 C12 1 12 1 13.3828125 3.046875 C13.58648437 3.69140625 13.79015625 4.3359375 14 5 C8.94744036 4.36843005 4.70406799 2.86540627 0 1 C0 0.67 0 0.34 0 0 Z " fill="#30B0BE" transform="translate(68,201)"/>
<path d="M0 0 C2.64 0.33 5.28 0.66 8 1 C8 1.99 8 2.98 8 4 C6.71086513 4.67154933 5.41859796 5.33708859 4.125 6 C3.40570313 6.37125 2.68640625 6.7425 1.9453125 7.125 C0 8 0 8 -2 8 C-2 7.34 -2 6.68 -2 6 C0.5 4.375 0.5 4.375 3 3 C2.01 2.67 1.02 2.34 0 2 C0 1.34 0 0.68 0 0 Z " fill="#2D9FC2" transform="translate(162,49)"/>
<path d="M0 0 C4.875 1.875 4.875 1.875 6 3 C6.07205511 4.68608966 6.08386068 6.37500659 6.0625 8.0625 C6.05347656 8.98160156 6.04445312 9.90070313 6.03515625 10.84765625 C6.02355469 11.55792969 6.01195312 12.26820313 6 13 C5.67 13 5.34 13 5 13 C4.731875 11.9275 4.46375 10.855 4.1875 9.75 C3.12368849 6.39059522 2.16633521 4.65868412 0 2 C0 1.34 0 0.68 0 0 Z " fill="#151818" transform="translate(142,167)"/>
<path d="M0 0 C-0.350625 0.763125 -0.70125 1.52625 -1.0625 2.3125 C-2.32360884 5.04759379 -2.32360884 5.04759379 -1 8 C-4.65316671 6.75023244 -5.78065836 6.32901247 -8 3 C-2.25 0 -2.25 0 0 0 Z " fill="#3DA3B3" transform="translate(89,137)"/>
<path d="M0 0 C1.258125 0.12375 2.51625 0.2475 3.8125 0.375 C4.87404297 0.47941406 4.87404297 0.47941406 5.95703125 0.5859375 C8 1 8 1 11 3 C12.98799818 3.70164642 14.98698517 4.37372872 17 5 C15.4375 5.6875 15.4375 5.6875 13 6 C10.6429774 5.05719096 8.30965848 4.05352843 6 3 C5.05125 2.814375 4.1025 2.62875 3.125 2.4375 C2.42375 2.293125 1.7225 2.14875 1 2 C0.67 1.34 0.34 0.68 0 0 Z " fill="#119EDF" transform="translate(145,148)"/>
<path d="M0 0 C3.46941546 0.45822468 6.67395049 0.89131683 10 2 C10.33 1.34 10.66 0.68 11 0 C11.33 1.65 11.66 3.3 12 5 C10.55989519 4.74337755 9.1229313 4.46909179 7.6875 4.1875 C6.88699219 4.03667969 6.08648437 3.88585937 5.26171875 3.73046875 C2.76554413 2.92427764 1.67577894 1.97947998 0 0 Z " fill="#38BFD4" transform="translate(92,147)"/>
<path d="M0 0 C2.10448938 0.14109986 4.2085877 0.28804175 6.3125 0.4375 C7.48425781 0.51871094 8.65601562 0.59992188 9.86328125 0.68359375 C13 1 13 1 16 2 C12.34387956 4.33991708 9.26792624 4.37437949 5 4 C2.0625 2.5625 2.0625 2.5625 0 1 C0 0.67 0 0.34 0 0 Z " fill="#2D9FBA" transform="translate(103,126)"/>
<path d="M0 0 C0.53625 0.226875 1.0725 0.45375 1.625 0.6875 C0.655625 0.97625 -0.31375 1.265 -1.3125 1.5625 C-4.48164203 2.32964682 -4.48164203 2.32964682 -5.375 4.6875 C-4.385 5.0175 -3.395 5.3475 -2.375 5.6875 C-4.025 6.0175 -5.675 6.3475 -7.375 6.6875 C-7.375 6.0275 -7.375 5.3675 -7.375 4.6875 C-8.695 5.0175 -10.015 5.3475 -11.375 5.6875 C-8.45877964 2.28524292 -4.62034368 -0.60793996 0 0 Z " fill="#073238" transform="translate(102.375,62.3125)"/>
<path d="M0 0 C0.66 0.33 1.32 0.66 2 1 C1.51917969 1.55171875 1.03835937 2.1034375 0.54296875 2.671875 C-1.23954161 5.36143493 -1.47751409 7.05821418 -1.6875 10.25 C-1.75324219 11.14203125 -1.81898437 12.0340625 -1.88671875 12.953125 C-1.92410156 13.62859375 -1.96148437 14.3040625 -2 15 C-1.34 15 -0.68 15 0 15 C-0.33 15.99 -0.66 16.98 -1 18 C-1.66 18 -2.32 18 -3 18 C-3.0809723 15.56183415 -3.14046972 13.12635616 -3.1875 10.6875 C-3.21263672 9.99720703 -3.23777344 9.30691406 -3.26367188 8.59570312 C-3.33834499 3.44325817 -3.33834499 3.44325817 -1.48828125 1.01953125 C-0.99714844 0.68308594 -0.50601563 0.34664062 0 0 Z " fill="#50B2BC" transform="translate(88,54)"/>
<path d="M0 0 C0.66 0 1.32 0 2 0 C2 0.66 2 1.32 2 2 C3.1446875 2.1546875 3.1446875 2.1546875 4.3125 2.3125 C7.17059424 3.04364039 8.15742885 3.76951913 10 6 C3.25 6.125 3.25 6.125 1 5 C1 4.01 1 3.02 1 2 C0.34 1.67 -0.32 1.34 -1 1 C-0.67 0.67 -0.34 0.34 0 0 Z " fill="#28C1DD" transform="translate(122,27)"/>
<path d="M0 0 C0 0.66 0 1.32 0 2 C3.3 2.33 6.6 2.66 10 3 C10 3.66 10 4.32 10 5 C9.39671875 4.98839844 8.7934375 4.97679687 8.171875 4.96484375 C7.37265625 4.95582031 6.5734375 4.94679687 5.75 4.9375 C4.96109375 4.92589844 4.1721875 4.91429687 3.359375 4.90234375 C1.09308998 4.99614694 -0.8288895 5.36758937 -3 6 C-3.33 4.35 -3.66 2.7 -4 1 C-2 0 -2 0 0 0 Z " fill="#062230" transform="translate(142,143)"/>
<path d="M0 0 C1.65 0.33 3.3 0.66 5 1 C5.33 2.65 5.66 4.3 6 6 C5.34 5.01 4.68 4.02 4 3 C3.01 3 2.02 3 1 3 C0.34 4.98 -0.32 6.96 -1 9 C-1.66 8.67 -2.32 8.34 -3 8 C-1.125 2.25 -1.125 2.25 0 0 Z " fill="#C1AE98" transform="translate(59,102)"/>
<path d="M0 0 C3.21524305 1.40844718 5.32183868 3.10344786 7.75 5.625 C8.67039063 6.57246094 8.67039063 6.57246094 9.609375 7.5390625 C10.29773438 8.26222656 10.29773438 8.26222656 11 9 C10.34 9.66 9.68 10.32 9 11 C7.88625 9.6078125 7.88625 9.6078125 6.75 8.1875 C4.70438561 5.71061648 2.58326416 3.913529 0 2 C0 1.34 0 0.68 0 0 Z " fill="#6B6159" transform="translate(165,61)"/>
<path d="M0 0 C-0.99 0.33 -1.98 0.66 -3 1 C-3 2.32 -3 3.64 -3 5 C-2.34 5.66 -1.68 6.32 -1 7 C-5.875 6.125 -5.875 6.125 -7 5 C-7.04063832 3.33382885 -7.042721 1.66611905 -7 0 C-3.86650268 -1.04449911 -3.01031744 -0.93423645 0 0 Z " fill="#1D1108" transform="translate(141,175)"/>
<path d="M0 0 C3.26941682 0.94641013 4.66822278 1.41184947 6.375 4.4375 C7 7 7 7 6 10 C2 5.375 2 5.375 2 2 C1.34 2 0.68 2 0 2 C0 1.34 0 0.68 0 0 Z " fill="#14D8F0" transform="translate(91,110)"/>
<path d="M0 0 C0.66 0 1.32 0 2 0 C2.33 0.66 2.66 1.32 3 2 C5.52733235 2.65555119 5.52733235 2.65555119 8 3 C5.37801226 5.15377564 3.35595828 6.40072174 0 7 C0 4.69 0 2.38 0 0 Z " fill="#359CBF" transform="translate(152,54)"/>
<path d="M0 0 C0 0.66 0 1.32 0 2 C-0.99 2 -1.98 2 -3 2 C-3 2.99 -3 3.98 -3 5 C-4.65 5 -6.3 5 -8 5 C-7.625 3.0625 -7.625 3.0625 -7 1 C-4.53721199 -0.231394 -2.7204945 -0.07159196 0 0 Z " fill="#0891E6" transform="translate(146,199)"/>
<path d="M0 0 C3.63 0 7.26 0 11 0 C8.41073669 2.58926331 6.97294721 2.37398043 3.375 2.625 C2.37210938 2.69976562 1.36921875 2.77453125 0.3359375 2.8515625 C-0.82035156 2.92503906 -0.82035156 2.92503906 -2 3 C-1.34 2.67 -0.68 2.34 0 2 C0 1.34 0 0.68 0 0 Z " fill="#0A9DDD" transform="translate(134,190)"/>
<path d="M0 0 C4.42857143 5.14285714 4.42857143 5.14285714 5 9 C3.35 9 1.7 9 0 9 C-0.33 8.01 -0.66 7.02 -1 6 C-0.67 5.34 -0.34 4.68 0 4 C0 2.68 0 1.36 0 0 Z " fill="#159BCB" transform="translate(136,78)"/>
<path d="M0 0 C0.99 0 1.98 0 3 0 C2.67 1.65 2.34 3.3 2 5 C0.35 5.33 -1.3 5.66 -3 6 C-3.33 5.01 -3.66 4.02 -4 3 C-2.68 2.67 -1.36 2.34 0 2 C0 1.34 0 0.68 0 0 Z " fill="#1CDBEA" transform="translate(92,138)"/>
<path d="M0 0 C1.2065625 0.0309375 1.2065625 0.0309375 2.4375 0.0625 C1.1175 0.3925 -0.2025 0.7225 -1.5625 1.0625 C-1.5625 1.7225 -1.5625 2.3825 -1.5625 3.0625 C-0.9025 3.0625 -0.2425 3.0625 0.4375 3.0625 C0.1075 4.7125 -0.2225 6.3625 -0.5625 8.0625 C-1.2225 8.0625 -1.8825 8.0625 -2.5625 8.0625 C-2.94313221 5.7364143 -3.27519945 3.40194736 -3.5625 1.0625 C-2.5625 0.0625 -2.5625 0.0625 0 0 Z " fill="#31241B" transform="translate(32.5625,99.9375)"/>
<path d="M0 0 C1.32 0 2.64 0 4 0 C4 1.65 4 3.3 4 5 C3.34 5 2.68 5 2 5 C2 5.66 2 6.32 2 7 C1.34 7 0.68 7 0 7 C0 4.69 0 2.38 0 0 Z " fill="#09A9E7" transform="translate(138,87)"/>
<path d="M0 0 C0.99 0.33 1.98 0.66 3 1 C1.02 1.99 1.02 1.99 -1 3 C-1 7.62 -1 12.24 -1 17 C-1.33 17 -1.66 17 -2 17 C-2.24959784 14.9190156 -2.47394907 12.83499188 -2.6875 10.75 C-2.81511719 9.58984375 -2.94273438 8.4296875 -3.07421875 7.234375 C-2.99254989 3.67533206 -2.42472438 2.51822275 0 0 Z " fill="#010C12" transform="translate(85,54)"/>
<path d="M0 0 C0.66 0.33 1.32 0.66 2 1 C1.67 1.61875 1.34 2.2375 1 2.875 C-0.14193235 4.91018344 -0.14193235 4.91018344 0 7 C-2.475 6.01 -2.475 6.01 -5 5 C-4.1875 3.0625 -4.1875 3.0625 -3 1 C-2.01 0.67 -1.02 0.34 0 0 Z " fill="#04252B" transform="translate(71,47)"/>
<path d="M0 0 C0 0.66 0 1.32 0 2 C0.99 2.66 1.98 3.32 3 4 C1.02 4.99 -0.96 5.98 -3 7 C-2.67 5.68 -2.34 4.36 -2 3 C-3.32 2.67 -4.64 2.34 -6 2 C-2.25 0 -2.25 0 0 0 Z " fill="#35B8C4" transform="translate(73,41)"/>
<path d="M0 0 C0.66 0 1.32 0 2 0 C3 6.625 3 6.625 3 10 C2.01 9.67 1.02 9.34 0 9 C0 6.03 0 3.06 0 0 Z " fill="#2BDCE5" transform="translate(46,177)"/>
<path d="M0 0 C0.66 0 1.32 0 2 0 C2.36923077 6.52307692 2.36923077 6.52307692 0.5 8.9375 C0.005 9.288125 -0.49 9.63875 -1 10 C-1.99 9.67 -2.98 9.34 -4 9 C-3.34 8.67 -2.68 8.34 -2 8 C-1.31527335 6.11235097 -1.31527335 6.11235097 -0.875 3.9375 C-0.70742187 3.20402344 -0.53984375 2.47054687 -0.3671875 1.71484375 C-0.24601563 1.14894531 -0.12484375 0.58304688 0 0 Z " fill="#C2A677" transform="translate(144,175)"/>
<path d="M0 0 C0 0.66 0 1.32 0 2 C1.32 2.33 2.64 2.66 4 3 C2.02 3.99 0.04 4.98 -2 6 C-2 5.01 -2 4.02 -2 3 C-3.32 3.33 -4.64 3.66 -6 4 C-2.25 0 -2.25 0 0 0 Z " fill="#071A26" transform="translate(122,155)"/>
<path d="M0 0 C2 2 2 2 2.265625 3.875 C2.26046875 4.57625 2.2553125 5.2775 2.25 6 C2.25515625 6.70125 2.2603125 7.4025 2.265625 8.125 C2 10 2 10 0 12 C-1.03159626 8.90521121 -0.97482862 7.47368607 -0.5625 4.3125 C-0.46066406 3.50425781 -0.35882813 2.69601563 -0.25390625 1.86328125 C-0.17011719 1.24839844 -0.08632812 0.63351563 0 0 Z " fill="#072439" transform="translate(148,171)"/>
<path d="M0 0 C0.33 0 0.66 0 1 0 C1 1.98 1 3.96 1 6 C2.32 6.33 3.64 6.66 5 7 C4.34 7 3.68 7 3 7 C3 9.97 3 12.94 3 16 C2.67 16 2.34 16 2 16 C1.8046875 13.98177083 1.609375 11.96354167 1.4140625 9.9453125 C1.13625251 7.77331755 1.13625251 7.77331755 -1 6 C-0.625 2.875 -0.625 2.875 0 0 Z " fill="#4F402C" transform="translate(144,80)"/>
<path d="M0 0 C0.66 0.33 1.32 0.66 2 1 C1.66086666 4.16524451 1.02752805 4.97600118 -1.4375 7.125 C-2.283125 7.74375 -3.12875 8.3625 -4 9 C-4.66 9.66 -5.32 10.32 -6 11 C-5.51602818 6.64425364 -4.20957142 4.9086741 -1 2 C-0.67 1.34 -0.34 0.68 0 0 Z " fill="#1ADAEF" transform="translate(88,80)"/>
<path d="M0 0 C2 1.3125 2 1.3125 4 3 C4 3.99 4 4.98 4 6 C-1.75 5.25 -1.75 5.25 -4 3 C-2.68 2.67 -1.36 2.34 0 2 C0 1.34 0 0.68 0 0 Z " fill="#418FA4" transform="translate(74,58)"/>
<path d="M0 0 C1.9375 0.3125 1.9375 0.3125 4 1 C4.33 1.99 4.66 2.98 5 4 C4.01 4 3.02 4 2 4 C2 4.66 2 5.32 2 6 C0.02 5.34 -1.96 4.68 -4 4 C-2.68 3.34 -1.36 2.68 0 2 C0 1.34 0 0.68 0 0 Z " fill="#29A0B9" transform="translate(136,33)"/>
<path d="M0 0 C2 3 2 3 1.7578125 5.26171875 C1.54898438 6.06222656 1.34015625 6.86273438 1.125 7.6875 C0.92132813 8.49574219 0.71765625 9.30398437 0.5078125 10.13671875 C0.25644531 11.05904297 0.25644531 11.05904297 0 12 C-2 9 -2 9 -1.7578125 6.73828125 C-1.44457031 5.53751953 -1.44457031 5.53751953 -1.125 4.3125 C-0.92132813 3.50425781 -0.71765625 2.69601563 -0.5078125 1.86328125 C-0.34023437 1.24839844 -0.17265625 0.63351563 0 0 Z " fill="#3F2A1F" transform="translate(189,145)"/>
<path d="M0 0 C4.39158329 1.4638611 4.87947433 3.97831338 7 8 C6.01 8.495 6.01 8.495 5 9 C4.67 7.68 4.34 6.36 4 5 C2.68 4.67 1.36 4.34 0 4 C0 2.68 0 1.36 0 0 Z " fill="#3CB3BE" transform="translate(99,142)"/>
<path d="M0 0 C1.98 0.495 1.98 0.495 4 1 C3.67 2.32 3.34 3.64 3 5 C1.68 4.67 0.36 4.34 -1 4 C-0.67 2.68 -0.34 1.36 0 0 Z " fill="#362319" transform="translate(60,104)"/>
<path d="M0 0 C0.66 0 1.32 0 2 0 C2 2.31 2 4.62 2 7 C0.68 7 -0.64 7 -2 7 C-1.125 2.25 -1.125 2.25 0 0 Z " fill="#21C9E0" transform="translate(64,50)"/>
<path d="M0 0 C5.75 0.75 5.75 0.75 8 3 C8 3.99 8 4.98 8 6 C5.33333333 4.66666667 2.66666667 3.33333333 0 2 C0 1.34 0 0.68 0 0 Z " fill="#4B899D" transform="translate(130,42)"/>
<path d="M0 0 C1.32 0 2.64 0 4 0 C4 0.66 4 1.32 4 2 C5.32 1.67 6.64 1.34 8 1 C8.99 2.65 9.98 4.3 11 6 C6.49197399 4.74194623 3.5087188 3.09592835 0 0 Z " fill="#052A33" transform="translate(125,26)"/>
<path d="M0 0 C2.97 0 5.94 0 9 0 C5.99382731 3.00617269 3.17618402 2.59585316 -1 3 C-0.67 2.01 -0.34 1.02 0 0 Z " fill="#1E7AB8" transform="translate(137,204)"/>
<path d="M0 0 C2.31 0.33 4.62 0.66 7 1 C7 1.66 7 2.32 7 3 C7.66 3.33 8.32 3.66 9 4 C3.48 4.368 3.48 4.368 1.125 2.5625 C0 1 0 1 0 0 Z " fill="#32C0CE" transform="translate(63,197)"/>
<path d="M0 0 C-1.12073862 0.83905565 -2.24674547 1.67107831 -3.375 2.5 C-4.00148437 2.9640625 -4.62796875 3.428125 -5.2734375 3.90625 C-7 5 -7 5 -9 5 C-9 4.01 -9 3.02 -9 2 C-5.62638617 -0.62392187 -4.03085709 -1.27471549 0 0 Z " fill="#1C6BB2" transform="translate(177,188)"/>
<path d="M0 0 C2.5 1.625 2.5 1.625 5 4 C5.3125 7.25 5.3125 7.25 5 10 C4.67 10 4.34 10 4 10 C4 8.35 4 6.7 4 5 C3.01 5.33 2.02 5.66 1 6 C0.67 4.02 0.34 2.04 0 0 Z " fill="#A68A68" transform="translate(142,170)"/>
<path d="M0 0 C1.32 1.32 2.64 2.64 4 4 C0.25 7 0.25 7 -2 7 C-1.125 2.25 -1.125 2.25 0 0 Z " fill="#4A8AA1" transform="translate(116,152)"/>
<path d="M0 0 C-2.31 1.32 -4.62 2.64 -7 4 C-7.33 2.68 -7.66 1.36 -8 0 C-4.94736336 -0.98120464 -3.05263664 -0.98120464 0 0 Z " fill="#21A5C5" transform="translate(126,123)"/>
<path d="M0 0 C1.32 0.33 2.64 0.66 4 1 C3.34 1 2.68 1 2 1 C2.33 2.32 2.66 3.64 3 5 C1.02 5.33 -0.96 5.66 -3 6 C-2.01 4.02 -1.02 2.04 0 0 Z " fill="#13C0E8" transform="translate(116,122)"/>
<path d="M0 0 C2.96052484 3.36423277 3.92289822 6.69159287 5 11 C4.34 11 3.68 11 3 11 C0.84694043 7.14243493 -0.39253254 4.44870215 0 0 Z " fill="#36BECB" transform="translate(86,100)"/>
<path d="M0 0 C0.66 0 1.32 0 2 0 C2.33 0.99 2.66 1.98 3 3 C-0.75 6 -0.75 6 -3 6 C-1.125 1.125 -1.125 1.125 0 0 Z " fill="#0F2326" transform="translate(131,168)"/>
<path d="M0 0 C1.32 0 2.64 0 4 0 C4 0.66 4 1.32 4 2 C1.36107824 3.78305524 -0.97178863 4.99059621 -4 6 C-3.67 5.01 -3.34 4.02 -3 3 C-2.34 3 -1.68 3 -1 3 C-0.67 2.01 -0.34 1.02 0 0 Z " fill="#0FA8E3" transform="translate(141,149)"/>
<path d="M0 0 C3.1875 -0.3125 3.1875 -0.3125 6 0 C5.01 0.33 4.02 0.66 3 1 C3 1.66 3 2.32 3 3 C0 5 0 5 -3 5 C-1.875 2.5 -1.875 2.5 0 0 Z " fill="#2CD6E9" transform="translate(89,137)"/>
<path d="M0 0 C2.31 0.33 4.62 0.66 7 1 C7.33 3.31 7.66 5.62 8 8 C7.4225 7.236875 6.845 6.47375 6.25 5.6875 C4.28296907 3.33799083 2.51523256 1.70676495 0 0 Z " fill="#041A31" transform="translate(166,153)"/>
<path d="M0 0 C0.33 0.66 0.66 1.32 1 2 C1.99 2.33 2.98 2.66 4 3 C4 3.66 4 4.32 4 5 C1.0625 4.625 1.0625 4.625 -2 4 C-2.33 3.34 -2.66 2.68 -3 2 C-2.01 1.34 -1.02 0.68 0 0 Z " fill="#21D6EE" transform="translate(98,144)"/>
<path d="M0 0 C2.31 0 4.62 0 7 0 C7.33 0.66 7.66 1.32 8 2 C7.67 2.99 7.34 3.98 7 5 C5 5 5 5 3.5 3.625 C3.005 3.08875 2.51 2.5525 2 2 C1.34 1.34 0.68 0.68 0 0 Z " fill="#0D1D25" transform="translate(137,138)"/>
<path d="M0 0 C0.66 0.33 1.32 0.66 2 1 C2.625 3.0625 2.625 3.0625 3 5 C1.35 5 -0.3 5 -2 5 C-2 3.68 -2 2.36 -2 1 C-1.34 0.67 -0.68 0.34 0 0 Z " fill="#E9C887" transform="translate(148,113)"/>
<path d="M0 0 C2.475 0.495 2.475 0.495 5 1 C4.67 2.65 4.34 4.3 4 6 C2.68 6.33 1.36 6.66 0 7 C0.185625 6.21625 0.37125 5.4325 0.5625 4.625 C1.25962266 2.02910225 1.25962266 2.02910225 0 0 Z " fill="#41332F" transform="translate(35,98)"/>
<path d="M0 0 C0 0.66 0 1.32 0 2 C-1.75 3.6875 -1.75 3.6875 -4 5 C-6.25 4.6875 -6.25 4.6875 -8 4 C-2.25 0 -2.25 0 0 0 Z " fill="#33A9BC" transform="translate(97,69)"/>
<path d="M0 0 C2.875 0.3125 2.875 0.3125 6 1 C6.66 1.99 7.32 2.98 8 4 C5.125 3.6875 5.125 3.6875 2 3 C1.34 2.01 0.68 1.02 0 0 Z " fill="#42A5BD" transform="translate(136,45)"/>
<path d="M0 0 C0.66 0 1.32 0 2 0 C2 0.66 2 1.32 2 2 C2.99 2 3.98 2 5 2 C5.33 2.99 5.66 3.98 6 5 C4.68 5 3.36 5 2 5 C2 4.34 2 3.68 2 3 C0.68 2.67 -0.64 2.34 -2 2 C-1.34 2 -0.68 2 0 2 C0 1.34 0 0.68 0 0 Z " fill="#21BCE1" transform="translate(151,42)"/>
<path d="M0 0 C6.625 0.75 6.625 0.75 10 3 C10 3.66 10 4.32 10 5 C5 3 5 3 0 1 C0 0.67 0 0.34 0 0 Z " fill="#031E2A" transform="translate(152,41)"/>
<path d="M0 0 C2.875 0.3125 2.875 0.3125 6 1 C6.66 1.99 7.32 2.98 8 4 C7.67 4.99 7.34 5.98 7 7 C4.66666667 4.66666667 2.33333333 2.33333333 0 0 Z " fill="#2487B8" transform="translate(142,166)"/>
<path d="M0 0 C0.66 0 1.32 0 2 0 C2 0.66 2 1.32 2 2 C2.66 2.33 3.32 2.66 4 3 C3.01 3.66 2.02 4.32 1 5 C0.01 4.67 -0.98 4.34 -2 4 C-1.34 2.68 -0.68 1.36 0 0 Z " fill="#19B7DE" transform="translate(129,136)"/>
<path d="M0 0 C0.625 1.875 0.625 1.875 1 4 C0.34 4.66 -0.32 5.32 -1 6 C-3.625 5.625 -3.625 5.625 -6 5 C-5.67 4.34 -5.34 3.68 -5 3 C-3.35 3 -1.7 3 0 3 C0 2.01 0 1.02 0 0 Z " fill="#A38D78" transform="translate(65,105)"/>
<path d="M0 0 C0.99 0 1.98 0 3 0 C3.625 1.8125 3.625 1.8125 4 4 C3.01 5.485 3.01 5.485 2 7 C0.5393715 4.35261084 0 3.10551666 0 0 Z " fill="#020C11" transform="translate(134,71)"/>
<path d="M0 0 C1.65 0 3.3 0 5 0 C5 0.99 5 1.98 5 3 C3.02 3 1.04 3 -1 3 C-0.67 2.01 -0.34 1.02 0 0 Z " fill="#00090A" transform="translate(98,64)"/>
<path d="M0 0 C5.75 2.625 5.75 2.625 8 6 C6.02 5.34 4.04 4.68 2 4 C2 3.34 2 2.68 2 2 C1.34 2 0.68 2 0 2 C0 1.34 0 0.68 0 0 Z " fill="#32B6C4" transform="translate(66,52)"/>
<path d="M0 0 C0 0.66 0 1.32 0 2 C-1.65 2 -3.3 2 -5 2 C-5.33 2.66 -5.66 3.32 -6 4 C-6.33 3.34 -6.66 2.68 -7 2 C-5.26578631 -1.46842738 -3.40984787 -1.13661596 0 0 Z " fill="#2DD0E6" transform="translate(84,38)"/>
</svg>
